<?xml version="1.0" encoding="UTF-8" standalone="no"?>
<!-- Created with Inkscape (http://www.inkscape.org/) -->

<svg
   xmlns:dc="http://purl.org/dc/elements/1.1/"
   xmlns:cc="http://creativecommons.org/ns#"
   xmlns:rdf="http://www.w3.org/1999/02/22-rdf-syntax-ns#"
   xmlns:svg="http://www.w3.org/2000/svg"
   xmlns="http://www.w3.org/2000/svg"
   xmlns:sodipodi="http://sodipodi.sourceforge.net/DTD/sodipodi-0.dtd"
   xmlns:inkscape="http://www.inkscape.org/namespaces/inkscape"
   width="210mm"
   height="297mm"
   viewBox="0 0 210 297"
   version="1.1"
   id="svg8"
   inkscape:version="0.92.4 (5da689c313, 2019-01-14)"
   sodipodi:docname="drawing.svg">
  <defs
     id="defs2" />
  <sodipodi:namedview
     id="base"
     pagecolor="#ffffff"
     bordercolor="#666666"
     borderopacity="1.0"
     inkscape:pageopacity="0.0"
     inkscape:pageshadow="2"
     inkscape:zoom="0.35"
     inkscape:cx="400"
     inkscape:cy="560"
     inkscape:document-units="mm"
     inkscape:current-layer="layer1"
     showgrid="false"
     inkscape:window-width="1680"
     inkscape:window-height="988"
     inkscape:window-x="-8"
     inkscape:window-y="-8"
     inkscape:window-maximized="1" />
  <metadata
     id="metadata5">
    <rdf:RDF>
      <cc:Work
         rdf:about="">
        <dc:format>image/svg+xml</dc:format>
        <dc:type
           rdf:resource="http://purl.org/dc/dcmitype/StillImage" />
        <dc:title></dc:title>
      </cc:Work>
    </rdf:RDF>
  </metadata>
  <g
     inkscape:label="Layer 1"
     inkscape:groupmode="layer"
     id="layer1">
    <path
       id="path3722"
       d="m 136.34468,150.46423 c 10.05016,-19.38584 7.18608,-43.85636 -7.0594,-59.725419 -8.37513,-9.32923 -19.52843,-14.46692 -31.405648,-14.46692 -11.876959,0 -23.030254,5.13769 -31.405027,14.46692 -8.374773,9.329229 -12.987148,21.754049 -12.987148,34.984889 0,13.23055 4.612375,25.65497 12.987148,34.98454 l 31.405337,34.98415 c 1.849731,-2.06054 25.813918,-28.75588 30.756538,-34.26141 0.0133,-0.0148 0.0266,-0.0297 0.0355,-0.0445 -1.28654,-1.43282 -22.67698,-25.26148 -22.67698,-25.26148 l -0.93881,-1.04542 9.7e-4,-7.4e-4 -1.87084,-2.0844 c 0,0 -8.925012,-9.94218 -10.912813,-12.15619 -2.181623,3.08363 -1.986515,7.63436 0.555119,10.466 l 25.320044,28.20578 c 0.45759,0.50969 0.70938,1.1801 0.70907,1.88762 -3.5e-4,0.68444 -0.2466,1.35085 -0.67536,1.82847 -0.21954,0.24457 -5.19668,5.78928 -5.56711,6.20188 -0.55188,0.61478 -1.1368,0.74403 -1.5299,0.74403 -0.40938,0 -1.02499,-0.14229 -1.63391,-0.82091 -5.61382,-6.25316 -24.928333,-27.77034 -25.532417,-28.44471 -7.428508,-8.48268 -7.350402,-22.18359 0.163218,-30.55328 3.679725,-4.09909 8.579598,-6.35677 13.796678,-6.35677 5.217081,0 10.116951,2.25768 13.796671,6.35677 4.17914,4.65503 6.21653,11.0956 5.58978,17.67007 -0.0563,0.59165 -0.0718,1.10717 0.30027,1.52195 l 4.73975,5.27993 c 3.07081,-10.2779 0.6786,-21.72222 -6.21005,-29.39595 -4.85769,-5.41097 -11.32729,-8.391329 -18.216909,-8.391329 -6.889266,0 -13.358872,2.980359 -18.216562,8.391329 -4.82886,5.37994 -7.508564,12.53202 -7.544844,20.13891 -0.03548,7.60046 2.56656,14.77597 7.33,20.20427 0.04435,0.0494 2.014058,2.24647 25.429555,28.33098 1.14981,1.2805 0.93075,2.90749 0.14149,3.78793 l -0.59592,0.66354 c -1.37308,1.52991 -4.590069,5.11314 -4.849311,5.40232 -0.631583,0.70322 -1.282326,0.8505 -1.716894,0.8505 -0.584924,0 -1.150067,-0.27026 -1.5908,-0.76171 L 70.893557,155.78276 c -14.880034,-16.57549 -14.880034,-43.54593 0,-60.121419 7.196809,-8.01737 16.780327,-12.43272 26.985099,-12.43272 10.205074,0 19.788594,4.41535 26.985404,12.43272 5.83865,6.503709 9.55696,14.749929 10.75311,23.847779 1.15268,8.76717 -0.20846,17.90253 -3.83368,25.73036 -0.009,0.0524 -0.004,0.12896 0.009,0.15761 z"
       inkscape:connector-curvature="0"
       style="stroke-width:1.23856652;fill:#008080" />
  </g>
</svg>
