<svg xmlns="http://www.w3.org/2000/svg" viewBox="0 0 18117 420" width="18117" height="420"><path d="M118.916 156.071c.743-.828 1.522-1.604 2.332-2.324.811-.72 1.652-1.385 2.522-1.994.869-.609 1.767-1.161 2.688-1.655.921-.494 1.866-.929 2.832-1.305.966-.375 1.952-.691 2.954-.945 1.003-.253 2.022-.446 3.054-.574 1.032-.129 2.077-.194 3.131-.194 7.378 0 14.308 3.194 19.513 8.991 5.91 6.583 8.791 15.693 7.904 24.99-.079.837-.1 1.566.426 2.153l6.702 7.467c1.448-4.845 2.037-9.874 1.819-14.827-.219-4.953-1.245-9.831-3.029-14.375-1.784-4.544-4.325-8.755-7.573-12.372-6.869-7.653-16.019-11.868-25.764-11.868-9.743 0-18.892 4.215-25.762 11.868-13.679 17.224-13.451 41.626-.304 57.056.062.071 2.848 3.178 35.965 40.068 10.717 12.151 20.81-3.384 33.602-17.921.02-.022.038-.043.051-.064-9.914-9.155-5.097-7.445-14.836 2.602-.31.347-7.349 8.187-7.873 8.772-.781.869-1.608 1.052-2.164 1.052-.579 0-1.45-.201-2.311-1.161-7.938-8.844-35.255-39.275-36.11-40.23-10.505-11.996-10.395-31.373.231-43.21M415.83 155.957c.751-.836 1.539-1.614 2.361-2.333.821-.718 1.672-1.376 2.549-1.973.878-.596 1.778-1.131 2.695-1.607.919-.492 1.862-.925 2.826-1.298.967-.371 1.955-.681 2.959-.93 1.007-.278 2.018-.498 3.03-.646 1.018-.141 2.044-.214 3.078-.214 7.343 0 14.24 3.193 19.42 8.989 5.872 6.598 8.746 15.727 7.884 25.029-.079.835-.095 1.567.488 2.217 2.247 2.504 4.493 4.96 6.744 7.418 1.445-4.834 2.032-9.85 1.814-14.791-.218-4.941-1.241-9.807-3.021-14.34-1.782-4.536-4.37-8.795-7.61-12.403-6.853-7.635-15.981-11.84-25.702-11.841-9.719 0-18.845 4.204-25.699 11.838-13.647 17.18-13.421 41.52-.308 56.91.062.071 2.819 3.146 35.849 39.939 10.686 12.128 20.754-3.357 33.52-17.852l.063.07c.021-.02.04-.039.053-.059-9.89-9.13-5.085-7.423-14.801 2.601-.31.346-7.343 8.181-7.868 8.765-.78.869-1.607 1.051-2.162 1.051-.578 0-1.449-.2-2.309-1.16-7.933-8.837-35.23-39.246-36.084-40.2-10.497-11.987-10.387-31.351.231-43.18M712.545 155.584c.775-.863 1.598-1.654 2.455-2.366.857-.713 1.742-1.347 2.641-1.905.905-.553 1.814-1.031 2.719-1.45.911-.482 1.846-.907 2.805-1.275.972-.352 1.965-.646 2.973-.878 1.025-.361 2.008-.672 2.956-.881.969-.185 1.934-.281 2.903-.281 7.227 0 14.014 3.191 19.112 8.984 5.744 6.643 8.596 15.839 7.818 25.154-.078.828-.078 1.572.692 2.431 2.291 2.554 4.577 4.9 6.883 7.253 1.433-4.794 2.016-9.769 1.8-14.67-.217-4.9-1.232-9.726-2.997-14.222-1.778-4.511-4.52-8.93-7.733-12.509-6.799-7.575-15.856-11.749-25.5-11.753-9.639 0-18.691 4.17-25.488 11.741-13.54 17.034-13.322 41.169-.321 56.428.062.07 2.723 3.038 35.467 39.512 10.58 12.054 20.567-3.267 33.25-17.62l.269.3c.025-.015.046-.029.058-.042-9.808-9.05-5.045-7.352-14.685 2.594-.309.345-7.326 8.161-7.849 8.744-.778.867-1.603 1.049-2.157 1.049-.576 0-1.445-.201-2.304-1.158-7.913-8.816-35.145-39.152-35.996-40.104-10.473-11.958-10.363-31.275.229-43.076M1009.015 154.888c.82-.912 1.705-1.726 2.629-2.427.924-.702 1.871-1.292 2.813-1.779.955-.472 1.882-.844 2.763-1.155.896-.465 1.817-.876 2.767-1.232.981-.32 1.983-.582 3-.783 1.056-.514 1.987-.997 2.814-1.32.88-.266 1.731-.406 2.579-.406 7.009 0 13.593 3.188 18.537 8.975 5.508 6.728 8.318 16.048 7.695 25.387-.076.817-.046 1.584 1.072 2.83 2.372 2.647 4.733 4.788 7.144 6.947 1.41-4.72 1.984-9.619 1.771-14.444-.213-4.826-1.212-9.578-2.95-14.005-1.77-4.463-4.799-9.181-7.963-12.705-6.699-7.464-15.621-11.578-25.122-11.587-9.491 0-18.403 4.105-25.096 11.56-13.341 16.761-13.136 40.514-.345 55.527.061.069 2.544 2.838 34.753 38.717 10.384 11.916 20.221-3.099 32.748-17.187l.655.729c.031-.007.055-.011.067-.013-9.657-8.9-4.971-7.217-14.469 2.582-.308.344-7.293 8.126-7.814 8.705-.775.863-1.596 1.044-2.147 1.044-.574 0-1.439-.199-2.294-1.152-7.878-8.776-34.988-38.977-35.836-39.924-10.425-11.906-10.316-31.136.229-42.884M1305.177 153.788c.89-.992 1.874-1.841 2.905-2.525 1.03-.684 2.074-1.203 3.084-1.577 1.035-.346 1.989-.549 2.833-.69.872-.44 1.77-.828 2.706-1.164.996-.269 2.012-.481 3.043-.634 1.106-.754 1.955-1.508 2.591-2.013.738-.393 1.408-.604 2.065-.604 6.666 0 12.927 3.183 17.629 8.961 5.132 6.863 7.878 16.379 7.499 25.757-.073.798.005 1.6 1.674 3.46 2.501 2.794 4.98 4.61 7.554 6.462 1.376-4.604 1.936-9.381 1.728-14.087-.207-4.707-1.181-9.342-2.876-13.66-1.759-4.389-5.241-9.578-8.326-13.015-6.542-7.288-15.251-11.31-24.525-11.327-9.256 0-17.948 4.004-24.476 11.274-13.027 16.33-12.842 39.479-.382 54.104.059.067 2.26 2.523 33.624 37.46 10.074 11.698 19.672-2.834 31.952-16.504l1.265 1.408c.041.006.071.019.083.034-9.419-8.663-4.855-7.005-14.129 2.564-.305.341-7.241 8.067-7.758 8.643-.769.857-1.584 1.037-2.132 1.037-.57 0-1.428-.198-2.277-1.144-7.822-8.715-34.74-38.701-35.581-39.641-10.352-11.821-10.243-30.915.227-42.579M1600.951 152.18c.994-1.107 2.123-2.008 3.309-2.667 1.185-.659 2.372-1.075 3.481-1.283 1.151-.161 2.145-.118 2.934-.01.839-.402 1.702-.757 2.617-1.065 1.018-.194 2.055-.333 3.106-.415 1.179-1.107 1.908-2.257 2.266-3.027.53-.579.936-.892 1.314-.892 6.164 0 11.954 3.176 16.302 8.94 4.584 7.06 7.233 16.862 7.213 26.297-.069.77.08 1.623 2.554 4.38 2.689 3.009 5.34 4.351 8.154 5.754 1.324-4.433 1.864-9.034 1.664-13.566-.199-4.533-1.137-8.997-2.768-13.155-1.742-4.279-5.887-10.159-8.858-13.469-6.312-7.031-14.71-10.917-23.652-10.946-8.913 0-17.284 3.855-23.57 10.857-12.568 15.699-12.412 37.966-.437 52.023.057.065 1.846 2.061 31.976 35.624 9.619 11.378 18.869-2.447 30.789-15.506l2.155 2.4c.057.024.095.062.107.103-9.07-8.318-4.684-6.696-13.631 2.536-.302.338-7.165 7.983-7.677 8.553-.761.848-1.568 1.026-2.11 1.026-.564 0-1.413-.196-2.253-1.132-7.741-8.623-34.376-38.296-35.209-39.227-10.244-11.697-10.136-30.591.224-42.133M1896.25 149.947c1.137-1.266 2.468-2.24 3.868-2.864 1.401-.623 2.786-.897 4.032-.875 1.313.096 2.363.48 3.076.933.791-.348 1.607-.656 2.494-.926 1.047-.089 2.113-.127 3.193-.111 1.279-1.597 1.842-3.296 1.813-4.435.243-.836.281-1.292.271-1.292 5.468 0 10.603 3.165 14.459 8.91 3.824 7.333 6.34 17.534 6.817 27.047-.062.732.183 1.657 3.775 5.659 2.95 3.307 5.841 3.991 8.987 4.77 1.254-4.196 1.765-8.551 1.575-12.841-.187-4.292-1.075-8.518-2.618-12.456-1.717-4.127-6.783-10.965-9.596-14.098-5.991-6.674-13.957-10.371-22.439-10.418-8.437 0-16.361 3.65-22.311 10.278-11.93 14.824-11.817 35.865-.514 49.135.054.061 1.271 1.42 29.686 33.072 8.99 10.936 17.756-1.908 29.175-14.119l3.392 3.778c.078.05.128.121.139.198-8.586-7.837-4.447-6.267-12.939 2.498-.298.333-7.06 7.867-7.564 8.428-.75.835-1.545 1.011-2.079 1.011-.556 0-1.393-.193-2.221-1.116-7.627-8.497-33.872-37.734-34.692-38.651-10.094-11.525-9.988-30.142.221-41.515M2191.003 146.997c1.326-1.477 2.923-2.546 4.607-3.123 1.685-.578 3.332-.663 4.76-.337 1.526.436 2.649 1.271 3.263 2.18.728-.278 1.482-.525 2.33-.744 1.088.049 2.192.145 3.309.291 1.413-2.243 1.755-4.669 1.215-6.295-.137-1.177-.583-1.82-1.106-1.82 4.547 0 8.818 3.151 12.025 8.871 2.818 7.694 5.159 18.42 6.293 28.038-.054.681.319 1.7 5.388 7.348 3.295 3.7 6.502 3.515 10.088 3.47 1.16-3.884 1.633-7.914 1.457-11.884-.172-3.974-.992-7.886-2.42-11.532-1.685-3.926-7.967-12.03-10.57-14.93-5.568-6.203-12.965-9.65-20.837-9.719-7.81 0-15.143 3.378-20.65 9.512-11.088 13.668-11.029 33.089-.615 45.319.05.057.512.574 26.662 29.704 8.157 10.35 16.285-1.198 27.043-12.288l5.025 5.597c.107.085.172.201.182.324-7.947-7.202-4.135-5.699-12.026 2.449-.292.326-6.921 7.711-7.415 8.261-.736.819-1.515.991-2.038.991-.545 0-1.366-.189-2.177-1.093-7.477-8.33-33.206-36.992-34.01-37.891-9.895-11.299-9.791-29.549.217-40.699M2485.23 143.359c1.56-1.738 3.485-2.925 5.52-3.445 2.036-.52 4.006-.373 5.657.328 1.79.855 3.004 2.247 3.495 3.718.649-.192 1.327-.363 2.128-.519 1.136.219 2.288.48 3.451.786 1.577-3.041 1.648-6.362.478-8.588-.606-1.598-1.651-2.473-2.805-2.473 3.411 0 6.615 3.134 9.022 8.824 1.577 8.139 3.702 19.513 5.647 29.259-.045.618.487 1.755 7.378 9.431 3.72 4.186 7.317 2.929 11.445 1.868 1.045-3.498 1.471-7.128 1.313-10.704-.154-3.581-.892-7.106-2.177-10.391-1.645-3.679-9.428-13.344-11.772-15.956-5.046-5.622-11.74-8.761-18.862-8.858-7.033 0-13.638 3.042-18.599 8.567-10.048 12.242-10.057 29.666-.739 40.612.045.051-.425-.47 22.93 25.547 7.131 9.63 14.472-.32 24.414-10.028l7.04 7.843c.142.126.225.297.234.479-7.158-6.419-3.749-5-10.899 2.387-.284.318-6.75 7.52-7.232 8.057-.717.798-1.477.966-1.987.966-.532 0-1.332-.184-2.123-1.066-7.292-8.124-32.384-36.076-33.168-36.953-9.65-11.019-9.549-28.818.211-39.691M2779.122 139.279c1.822-2.03 4.114-3.349 6.543-3.805 2.429-.456 4.761-.047 6.663 1.073 2.085 1.325 3.401 3.341 3.753 5.443.563-.095 1.155-.181 1.903-.266 1.191.408 2.395.855 3.61 1.341 1.762-3.936 1.528-8.261-.349-11.161-1.131-2.068-2.846-3.204-4.71-3.204 2.138 0 4.146 3.115 5.655 8.77.187 8.639 2.069 20.74 4.922 30.63-.034.548.676 1.815 9.61 11.767 4.197 4.731 8.231 2.271 12.967.071.916-3.066 1.289-6.248 1.151-9.382-.134-3.139-.778-6.231-1.904-9.111-1.601-3.401-11.065-14.817-13.12-17.106-4.461-4.97-10.365-7.765-16.646-7.893-6.164 0-11.952 2.667-16.299 7.508-8.884 10.643-8.969 25.827-.88 35.335.039.044-1.476-1.641 18.747 20.886 5.98 8.82 12.437.663 21.464-7.495l9.3 10.36c.181.174.285.406.293.653-6.273-5.541-3.316-4.214-9.635 2.318-.277.309-6.558 7.306-7.026 7.828-.697.776-1.435.939-1.931.939-.517 0-1.294-.18-2.062-1.037-7.085-7.892-31.463-35.049-32.225-35.901-9.375-10.705-9.277-27.997.206-38.561M3072.988 135.166c2.086-2.324 4.749-3.777 7.575-4.167 2.825-.391 5.522.28 7.677 1.824 2.383 1.798 3.801 4.443 4.015 7.181.474.003.98.002 1.674-.012 1.247.601 2.504 1.234 3.771 1.901 1.948-4.837 1.407-10.174-1.182-13.753-1.662-2.544-4.053-3.942-6.631-3.942.855 0 1.658 3.096 2.261 8.717-1.215 9.142.423 21.975 4.192 32.01-.023.477.866 1.877 11.859 14.123 4.678 5.279 9.153 1.607 14.502-1.742.785-2.629 1.105-5.359.987-8.047-.113-2.695-.664-5.349-1.628-7.822-1.556-3.122-12.716-16.303-14.479-18.266-3.871-4.313-8.981-6.76-14.413-6.919-5.287 0-10.253 2.287-13.982 6.44-7.709 9.031-7.871 21.958-1.02 30.015.034.038-2.535-2.822 14.53 16.188 4.819 8.005 10.386 1.654 18.491-4.941l11.578 12.897c.22.221.345.516.352.828-5.381-4.655-2.88-3.423-8.361 2.249-.269.3-6.365 7.091-6.819 7.596-.676.754-1.393.912-1.874.912-.501 0-1.256-.174-2.001-1.006-6.876-7.659-30.534-34.014-31.274-34.841-9.098-10.389-9.002-27.171.2-37.423M3367.09 131.362c2.33-2.596 5.336-4.172 8.528-4.503 3.192-.331 6.227.584 8.615 2.519 2.659 2.236 4.172 5.463 4.257 8.79.393.092.819.171 1.464.223 1.297.778 2.604 1.584 3.919 2.419 2.12-5.672 1.296-11.945-1.953-16.151-2.151-2.984-5.168-4.625-8.407-4.625-.332 0-.644 3.079-.878 8.667-2.511 9.608-1.1 23.119 3.516 33.288-.012.412 1.043 1.934 13.939 16.301 5.123 5.787 10.006.994 15.922-3.417.665-2.227.936-4.538.835-6.814-.093-2.284-.557-4.534-1.372-6.63-1.515-2.863-14.244-17.676-15.736-19.338-3.326-3.705-7.7-5.831-12.347-6.019-4.477 0-8.682 1.937-11.839 5.453-6.623 7.54-6.855 18.379-1.151 25.094.029.032-3.514-3.913 10.63 11.843 3.746 7.25 8.49 2.571 15.742-2.579l13.684 15.243c.257.266.401.619.407.991-4.556-3.837-2.476-2.691-7.183 2.184-.261.292-6.186 6.892-6.627 7.383-.657.732-1.353.886-1.821.886-.487 0-1.22-.169-1.945-.977-6.682-7.444-29.674-33.058-30.393-33.861-8.843-10.097-8.75-26.406.194-36.37M3661.542 128.019c2.545-2.836 5.853-4.52 9.367-4.799 3.514-.278 6.846.85 9.44 3.13 2.9 2.621 4.497 6.36 4.468 10.203.322.172.678.32 1.279.43 1.343.935 2.693 1.893 4.05 2.874 2.271-6.404 1.197-13.501-2.631-18.259-2.582-3.37-6.148-5.224-9.968-5.224-1.376 0-2.668 3.063-3.637 8.623-3.651 10.017-2.439 24.124 2.922 34.411-.003.354 1.197 1.983 15.768 18.216 5.514 6.233 10.755.454 17.169-4.891.559-1.872.787-3.815.702-5.729-.076-1.923-.464-3.817-1.148-5.582-1.479-2.635-15.586-18.883-16.841-20.281-2.846-3.171-6.574-5.013-10.531-5.227-3.765 0-7.3 1.628-9.954 4.585-5.668 6.23-5.963 15.232-1.266 20.768.024.028-4.375-4.872 7.202 8.024 2.802 6.587 6.822 3.376 13.324-.503l15.536 17.307c.289.304.45.707.455 1.133-3.831-3.117-2.121-2.048-6.147 2.128-.254.284-6.028 6.716-6.458 7.194-.64.714-1.319.864-1.775.864-.475 0-1.189-.165-1.896-.953-6.512-7.254-28.918-32.216-29.619-32.998-8.617-9.84-8.527-25.735.189-35.444M3956.354 125.146c2.729-3.04 6.296-4.818 10.087-5.051 3.791-.233 7.378 1.079 10.148 3.654 3.108 2.952 4.777 7.13 4.651 11.417.26.241.555.448 1.119.607 1.382 1.069 2.769 2.158 4.162 3.266 2.402-7.034 1.114-14.837-3.212-20.07-2.952-3.701-6.99-5.739-11.309-5.739-2.273 0-4.407 3.05-6.008 8.586-4.63 10.368-3.589 24.987 2.412 35.375.004.304 1.33 2.026 17.339 19.86 5.849 6.617 11.399-.008 18.24-6.155.469-1.568.659-3.195.589-4.798-.062-1.613-.385-3.201-.956-4.682-1.448-2.439-16.739-19.92-17.79-21.09-2.434-2.712-5.607-4.312-8.972-4.548-3.152 0-6.112 1.364-8.335 3.84-4.848 5.104-5.196 12.53-1.364 17.052.02.023-5.115-5.696 4.256 4.743 1.992 6.017 5.39 4.069 11.248 1.28l17.127 19.079c.316.338.493.785.497 1.256-3.209-2.499-1.817-1.495-5.258 2.079-.249.278-5.893 6.566-6.313 7.034-.626.697-1.29.843-1.735.843-.464 0-1.163-.161-1.853-.931-6.366-7.091-28.27-31.493-28.955-32.258-8.424-9.619-8.336-25.157.185-34.649M4251.488 122.698c2.887-3.215 6.674-5.073 10.701-5.267 4.028-.195 7.832 1.274 10.752 4.101 3.286 3.234 5.015 7.786 4.807 12.452.207.299.451.557.984.759 1.414 1.183 2.833 2.383 4.257 3.599 2.513-7.571 1.041-15.977-3.708-21.613-3.268-3.985-7.708-6.178-12.453-6.178-3.036 0-5.887 3.038-8.028 8.553-5.464 10.668-4.569 25.723 1.978 36.197.011.263 1.443 2.063 18.677 21.262 6.136 6.943 11.948-.403 19.154-7.234.391-1.308.55-2.666.491-4.003-.049-1.349-.317-2.677-.792-3.915-1.421-2.273-17.721-20.804-18.598-21.781-2.083-2.32-4.783-3.713-7.642-3.967-2.631 0-5.101 1.138-6.957 3.204-4.149 4.144-4.542 10.226-1.447 13.885.017.02-5.746-6.399 1.746 1.946 1.301 5.532 4.169 4.659 9.478 2.801l18.483 20.589c.34.366.528.85.532 1.361-2.678-1.973-1.557-1.024-4.5 2.037-.244.272-5.777 6.437-6.189 6.896-.614.684-1.265.827-1.702.827-.455 0-1.139-.158-1.816-.913-6.242-6.952-27.717-30.876-28.389-31.626-8.259-9.432-8.172-24.666.181-33.972M4546.9 120.614c3.021-3.365 6.996-5.29 11.224-5.452 4.228-.161 8.217 1.44 11.266 4.483 3.436 3.474 5.218 8.345 4.939 13.333.163.348.363.65.868.887 1.442 1.281 2.889 2.575 4.339 3.883 2.607-8.028.98-16.947-4.131-22.927-3.536-4.226-8.319-6.552-13.425-6.552-3.688 0-7.15 3.028-9.749 8.526-6.175 10.923-5.403 26.349 1.607 36.897.017.227 1.54 2.094 19.818 22.456 6.379 7.221 12.415-.739 19.932-8.152.325-1.088.457-2.216.408-3.328-.039-1.123-.259-2.229-.653-3.261-1.398-2.131-18.558-21.556-19.286-22.368-1.785-1.988-4.081-3.204-6.511-3.475-2.186 0-4.24.946-5.781 2.663-3.554 3.327-3.987 8.265-1.52 11.189.014.016-6.282-6.997-.391-.435.713 5.119 3.13 5.162 7.972 4.095l19.637 21.875c.36.391.559.906.562 1.45-2.226-1.524-1.336-.623-3.854 2.002-.24.268-5.68 6.328-6.085 6.779-.603.672-1.242.813-1.672.813-.447 0-1.12-.156-1.786-.897-6.135-6.835-27.246-30.353-27.906-31.09-8.119-9.271-8.034-24.246.178-33.394M4842.546 118.837c3.135-3.492 7.27-5.475 11.67-5.608 4.399-.134 8.546 1.581 11.704 4.807 3.565 3.678 5.391 8.821 5.051 14.084.125.39.288.729.77.997 1.466 1.364 2.936 2.739 4.409 4.125 2.687-8.418.928-17.774-4.491-24.048-3.765-4.431-8.84-6.87-14.256-6.87-4.241 0-8.224 3.02-11.215 8.503-6.78 11.14-6.114 26.883 1.292 37.494.021.195 1.622 2.12 20.79 23.473 6.587 7.458 12.812-1.026 20.594-8.935.269-.899.378-1.832.338-2.752-.03-.931-.21-1.848-.534-2.703-1.378-2.011-19.271-22.199-19.874-22.87-1.529-1.704-3.482-2.77-5.545-3.054-1.808 0-3.505.782-4.78 2.202-3.046 2.63-3.512 6.593-1.58 8.89.011.013-6.74-7.507-2.214-2.465.212 4.766 2.244 5.59 6.688 5.198l20.621 22.972c.376.411.585.953.587 1.526-1.84-1.142-1.147-.282-3.303 1.972-.236.263-5.596 6.234-5.995 6.678-.594.662-1.224.802-1.648.802-.44 0-1.103-.154-1.759-.885-6.045-6.733-26.845-29.905-27.495-30.631-8-9.135-7.916-23.889.175-32.902M5138.39 117.32c3.233-3.601 7.504-5.633 12.05-5.742 4.546-.11 8.827 1.702 12.079 5.084 3.674 3.853 5.538 9.228 5.147 14.725.093.426.224.797.686 1.091 1.487 1.435 2.976 2.878 4.468 4.332 2.756-8.751.883-18.48-4.799-25.004-3.96-4.607-9.284-7.143-14.963-7.143-4.716 0-9.143 3.013-12.468 8.483-7.297 11.327-6.721 27.339 1.023 38.004.025.169 1.692 2.142 21.619 24.342 6.764 7.66 13.153-1.271 21.161-9.604.22-.738.31-1.504.277-2.259-.022-.768-.167-1.523-.432-2.228-1.362-1.907-19.88-22.747-20.375-23.298-1.312-1.461-2.972-2.399-4.722-2.694-1.484-.001-2.878.642-3.925 1.807-2.613 2.036-3.106 5.166-1.632 6.928.01.011-7.131-7.943-3.769-4.198-.216 4.465 1.487 5.955 5.591 6.14l21.461 23.908c.391.429.608.994.609 1.59-1.511-.815-.985.011-2.833 1.947-.233.26-5.524 6.154-5.918 6.593-.587.654-1.209.791-1.627.791-.435 0-1.09-.151-1.737-.873-5.968-6.648-26.502-29.523-27.144-30.24-7.898-9.018-7.815-23.584.173-32.482M5434.403 116.024c3.315-3.694 7.704-5.768 12.375-5.857 4.67-.089 9.067 1.806 12.398 5.321 3.768 4.002 5.664 9.575 5.23 15.273.064.457.168.855.614 1.172 1.504 1.495 3.01 2.997 4.518 4.507 2.814-9.034.845-19.083-5.061-25.821-4.127-4.756-9.665-7.374-15.569-7.374-5.12 0-9.927 3.006-13.537 8.465-7.739 11.485-7.241 27.729.792 38.439.029.147 1.752 2.162 22.329 25.084 6.915 7.834 13.443-1.479 21.644-10.174.179-.601.252-1.225.225-1.839-.015-.627-.131-1.246-.344-1.822-1.348-1.819-20.401-23.214-20.804-23.663-1.126-1.254-2.535-2.082-4.018-2.388-1.208 0-2.342.523-3.194 1.472-2.243 1.528-2.761 3.946-1.677 5.251.008.008-7.464-8.315-5.098-5.679-.582 4.208.841 6.268 4.654 6.945l22.179 24.707c.404.444.626 1.029.628 1.646-1.23-.536-.848.26-2.432 1.924-.231.258-5.464 6.087-5.853 6.521-.58.646-1.195.782-1.609.782-.43 0-1.077-.149-1.717-.863-5.903-6.574-26.21-29.197-26.845-29.906-7.81-8.919-7.728-23.324.172-32.123M5730.56 114.917c3.386-3.772 7.875-5.882 12.652-5.954 4.777-.072 9.272 1.894 12.671 5.523 3.849 4.13 5.772 9.872 5.3 15.741.041.483.122.904.553 1.24 1.519 1.547 3.039 3.099 4.562 4.658 2.864-9.277.812-19.598-5.286-26.518-4.269-4.884-9.989-7.573-16.085-7.573-5.465 0-10.597 3.001-14.45 8.451-8.117 11.62-7.684 28.061.595 38.81.032.128 1.803 2.179 22.934 25.718 7.045 7.981 13.691-1.658 22.057-10.662.144-.484.203-.986.181-1.48-.01-.508-.1-1.008-.27-1.475-1.336-1.744-20.845-23.614-21.169-23.975-.968-1.078-2.163-1.812-3.417-2.126-.973 0-1.886.421-2.571 1.184-1.927 1.094-2.466 2.905-1.715 3.82.006.007-7.749-8.632-6.233-6.943-.894 3.989.29 6.535 3.855 7.632l22.792 25.39c.414.457.642 1.058.643 1.693-.99-.298-.731.473-2.089 1.906-.228.255-5.411 6.029-5.797 6.458-.575.641-1.184.775-1.593.775-.427 0-1.068-.148-1.702-.855-5.846-6.511-25.959-28.919-26.588-29.621-7.736-8.833-7.655-23.101.17-31.817M6026.842 113.975c3.447-3.84 8.02-5.98 12.888-6.037 4.868-.057 9.447 1.969 12.904 5.695 3.917 4.238 5.864 10.125 5.36 16.139.021.506.081.946.501 1.298 1.531 1.591 3.064 3.186 4.598 4.787 2.907-9.484.785-20.037-5.476-27.113-4.391-4.992-10.266-7.742-16.526-7.742-5.759 0-11.167 2.998-15.227 8.439-8.438 11.736-8.061 28.344.428 39.127.035.112 1.846 2.193 23.449 26.257 7.155 8.107 13.902-1.81 22.408-11.077.115-.384.161-.782.144-1.174-.005-.406-.074-.807-.207-1.18-1.326-1.68-21.223-23.954-21.48-24.241-.833-.927-1.846-1.581-2.906-1.902-.772-.001-1.496.333-2.04.939-1.658.725-2.214 2.019-1.747 2.601.005.006-7.992-8.903-7.199-8.019-1.159 3.802-.18 6.762 3.173 8.217l23.315 25.972c.422.467.656 1.083.656 1.733-.785-.095-.63.654-1.797 1.889-.226.253-5.367 5.98-5.75 6.406-.57.635-1.174.768-1.58.768-.422 0-1.058-.147-1.687-.848-5.798-6.458-25.747-28.681-26.371-29.378-7.672-8.761-7.591-22.912.169-31.556M6323.233 113.176c3.499-3.897 8.144-6.063 13.089-6.107 4.945-.045 9.594 2.032 13.1 5.841 3.975 4.33 5.942 10.338 5.411 16.476.004.525.048.982.457 1.348 1.542 1.628 3.085 3.26 4.629 4.895 2.943-9.659.762-20.408-5.638-27.616-4.494-5.085-10.499-7.885-16.898-7.885-6.009 0-11.651 2.994-15.887 8.428-8.71 11.834-8.38 28.585.287 39.396.036.098 1.883 2.204 23.885 26.714 7.249 8.214 14.081-1.939 22.707-11.429.089-.299.125-.609.112-.915-.001-.32-.052-.635-.154-.93-1.317-1.625-21.544-24.242-21.744-24.465-.718-.8-1.577-1.387-2.472-1.714-.601 0-1.166.26-1.59.732-1.43.412-2.001 1.267-1.774 1.568.004.004-8.198-9.132-8.018-8.931-1.385 3.643-.579 6.954 2.596 8.713l23.756 26.464c.431.477.668 1.104.669 1.767-.613.077-.546.808-1.55 1.876-.225.251-5.33 5.937-5.71 6.361-.566.63-1.166.763-1.569.763-.419 0-1.051-.146-1.675-.842-5.758-6.413-25.566-28.481-26.186-29.173-7.618-8.699-7.538-22.751.167-31.335M6619.721 112.504c3.542-3.945 8.248-6.133 13.257-6.167 5.01-.034 9.719 2.086 13.267 5.964 4.023 4.407 6.007 10.519 5.453 16.761-.01.54.019 1.011.419 1.389 1.551 1.659 3.103 3.322 4.656 4.987 2.974-9.806.742-20.721-5.774-28.04-4.581-5.163-10.697-8.006-17.213-8.006-6.218 0-12.057 2.991-16.441 8.42-8.939 11.916-8.65 28.786.167 39.621.039.086 1.915 2.214 24.253 27.099 7.327 8.303 14.232-2.047 22.957-11.725.069-.228.096-.464.086-.697.002-.248-.033-.491-.109-.719-1.31-1.579-21.813-24.485-21.966-24.655-.621-.692-1.35-1.223-2.107-1.555-.458 0-.888.198-1.211.558-1.238.148-1.821.634-1.797.698.003.003-8.371-9.325-8.707-9.699-1.575 3.51-.914 7.116 2.11 9.13l24.128 26.879c.437.485.678 1.123.678 1.796-.466.221-.474.937-1.341 1.865-.224.249-5.298 5.902-5.676 6.322-.562.627-1.159.759-1.559.759-.418 0-1.045-.145-1.666-.837-5.723-6.375-25.414-28.312-26.03-28.999-7.574-8.648-7.494-22.616.166-31.149M6916.294 111.944c3.578-3.985 8.334-6.192 13.398-6.217 5.064-.025 9.822 2.131 13.404 6.067 4.064 4.472 6.062 10.669 5.489 16.997-.022.554-.004 1.037.389 1.424 1.558 1.686 3.117 3.373 4.677 5.063 2.999-9.929.726-20.982-5.887-28.393-4.653-5.227-10.861-8.106-17.475-8.106-6.392 0-12.396 2.988-16.903 8.412-9.13 11.985-8.874 28.955.067 39.809.04.077 1.941 2.223 24.56 27.42 7.393 8.379 14.357-2.137 23.166-11.971.051-.169.071-.344.063-.516.006-.187-.017-.371-.071-.543-1.303-1.541-22.038-24.687-22.151-24.813-.541-.603-1.162-1.086-1.803-1.422-.338-.001-.656.146-.895.412-1.078-.071-1.672.107-1.816-.027.002.003-8.516-9.485-9.282-10.339-1.733 3.399-1.193 7.251 1.705 9.479l24.439 27.224c.442.491.686 1.137.686 1.82-.345.342-.415 1.044-1.168 1.855-.223.248-5.272 5.873-5.647 6.291-.56.624-1.154.755-1.552.755-.416 0-1.04-.144-1.658-.833-5.695-6.343-25.287-28.17-25.9-28.854-7.536-8.605-7.457-22.504.165-30.994M7212.944 111.484c3.607-4.018 8.405-6.239 13.513-6.257 5.108-.018 9.908 2.167 13.518 6.15 4.097 4.525 6.106 10.793 5.518 17.192-.032.565-.024 1.057.363 1.452 1.564 1.707 3.13 3.416 4.695 5.126 3.02-10.03.712-21.196-5.981-28.683-4.712-5.28-10.995-8.189-17.689-8.189-6.536 0-12.674 2.986-17.283 8.407-9.287 12.04-9.058 29.093-.014 39.963.041.069 1.962 2.23 24.811 27.684 7.447 8.439 14.461-2.212 23.338-12.175.036-.119.05-.244.045-.366.008-.137-.005-.272-.04-.399-1.299-1.51-22.223-24.853-22.304-24.943-.475-.529-1.006-.973-1.552-1.313-.241 0-.467.104-.637.293-.946-.252-1.549-.326-1.832-.622.002.002-8.634-9.618-9.753-10.864-1.863 3.307-1.423 7.361 1.372 9.763l24.694 27.509c.447.496.693 1.149.693 1.839-.246.441-.367 1.133-1.026 1.848-.221.247-5.25 5.848-5.624 6.265-.557.621-1.148.752-1.545.752-.414 0-1.036-.144-1.651-.83-5.671-6.317-25.184-28.055-25.794-28.736-7.505-8.569-7.426-22.411.165-30.866M7509.662 111.114c3.631-4.045 8.462-6.278 13.606-6.29 5.144-.012 9.976 2.197 13.609 6.218 4.124 4.568 6.142 10.892 5.541 17.349-.04.573-.039 1.073.343 1.474 1.569 1.725 3.139 3.45 4.71 5.177 3.036-10.111.701-21.368-6.056-28.917-4.76-5.323-11.104-8.254-17.862-8.254-6.652 0-12.898 2.983-17.588 8.401-9.413 12.086-9.207 29.204-.08 40.088.042.062 1.979 2.235 25.013 27.895 7.49 8.489 14.544-2.271 23.476-12.337.024-.081.034-.165.031-.247.009-.097.005-.193-.016-.283-1.295-1.485-22.371-24.987-22.426-25.047-.422-.47-.882-.883-1.351-1.225-.162-.001-.314.069-.428.196-.841-.396-1.451-.673-1.845-1.1.001.001-8.729-9.724-10.133-11.287-1.967 3.234-1.607 7.451 1.105 9.994l24.899 27.736c.45.501.698 1.16.698 1.855-.165.521-.327 1.205-.911 1.841-.221.247-5.232 5.83-5.605 6.245-.556.619-1.145.749-1.541.749-.412 0-1.032-.143-1.645-.826-5.652-6.297-25.1-27.962-25.708-28.641-7.48-8.541-7.401-22.337.164-30.764M7806.442 110.826c3.65-4.066 8.507-6.308 13.678-6.316 5.172-.007 10.03 2.22 13.681 6.271 4.145 4.601 6.17 10.969 5.559 17.47-.046.581-.051 1.086.327 1.493 1.573 1.738 3.147 3.476 4.721 5.216 3.05-10.175.693-21.503-6.114-29.098-4.797-5.357-11.189-8.307-17.997-8.307-6.741 0-13.073 2.982-17.826 8.397-9.511 12.122-9.322 29.291-.131 40.185.043.057 1.992 2.239 25.171 28.06 7.523 8.528 14.608-2.317 23.584-12.464.015-.05.021-.102.018-.153.011-.066.014-.131.004-.193-1.291-1.465-22.487-25.09-22.521-25.128-.38-.424-.785-.812-1.195-1.157-.1 0-.195.043-.265.122-.759-.51-1.374-.945-1.855-1.473.001 0-8.803-9.807-10.428-11.617-2.049 3.177-1.751 7.52.896 10.173l25.059 27.914c.453.504.702 1.167.702 1.867-.103.583-.297 1.26-.822 1.837-.22.245-5.219 5.814-5.591 6.228-.554.618-1.141.748-1.536.748-.411 0-1.029-.143-1.641-.825-5.638-6.28-25.035-27.889-25.642-28.566-7.46-8.519-7.382-22.279.164-30.684M8103.279 110.611c3.663-4.08 8.54-6.33 13.732-6.334 5.192-.004 10.069 2.237 13.733 6.31 4.16 4.625 6.191 11.026 5.573 17.561-.05.585-.061 1.096.315 1.506 1.576 1.748 3.153 3.496 4.73 5.245 3.059-10.222.686-21.602-6.158-29.234-4.825-5.381-11.252-8.345-18.097-8.345-6.808 0-13.202 2.982-18.003 8.395-9.584 12.148-9.407 29.355-.169 40.257.044.053 2.002 2.242 25.288 28.183 7.549 8.556 14.657-2.352 23.664-12.559.008-.027.011-.056.01-.084.012-.042.02-.085.018-.125-1.289-1.45-22.573-25.168-22.591-25.189-.35-.389-.713-.76-1.079-1.106-.055 0-.106.023-.145.066-.697-.594-1.316-1.147-1.862-1.75 0 0-8.858-9.869-10.648-11.862-2.109 3.135-1.858 7.572.742 10.306l25.177 28.046c.455.507.705 1.174.705 1.877-.056.629-.274 1.301-.755 1.833-.22.245-5.209 5.803-5.58 6.216-.553.617-1.14.746-1.534.746-.41 0-1.027-.143-1.638-.823-5.626-6.268-24.986-27.835-25.592-28.511-7.446-8.503-7.367-22.235.164-30.625M8400.167 110.465c3.673-4.091 8.563-6.345 13.769-6.347 5.206-.002 10.096 2.249 13.769 6.336 4.171 4.642 6.206 11.066 5.583 17.623-.054.589-.067 1.102.306 1.515 1.579 1.755 3.157 3.51 4.736 5.265 3.065-10.254.682-21.67-6.188-29.326-4.843-5.398-11.294-8.371-18.165-8.371-6.854 0-13.291 2.981-18.124 8.393-9.634 12.165-9.466 29.399-.195 40.305.044.052 2.009 2.245 25.368 28.268 7.566 8.575 14.69-2.376 23.719-12.624.003-.011.005-.024.004-.036.013-.027.024-.053.028-.079-1.288-1.441-22.632-25.221-22.64-25.23-.329-.367-.663-.725-.999-1.072-.024 0-.046.01-.062.028-.656-.651-1.277-1.285-1.867-1.94 0 0-8.897-9.91-10.799-12.029-2.15 3.106-1.931 7.608.636 10.397l25.258 28.137c.457.508.708 1.177.708 1.883-.025.66-.259 1.329-.71 1.83-.22.245-5.202 5.795-5.573 6.208-.552.616-1.138.745-1.531.745-.41 0-1.026-.142-1.636-.822-5.619-6.259-24.953-27.798-25.558-28.473-7.436-8.491-7.358-22.206.163-30.584M8697.103 110.38c3.678-4.097 8.575-6.354 13.79-6.354 5.214-.001 10.112 2.255 13.79 6.352 4.177 4.652 6.214 11.088 5.588 17.658-.056.591-.071 1.106.302 1.521 1.579 1.758 3.159 3.517 4.738 5.276 3.07-10.272.68-21.71-6.204-29.379-4.854-5.408-11.32-8.386-18.204-8.386-6.881 0-13.343 2.98-18.195 8.391-9.662 12.176-9.499 29.425-.21 40.334.045.05 2.013 2.246 25.415 28.316 7.576 8.587 14.708-2.39 23.75-12.661.001-.003.001-.006.001-.008.013-.018.026-.036.034-.053-1.287-1.435-22.667-25.252-22.668-25.254-.317-.353-.635-.704-.954-1.052-.005 0-.011.002-.014.006-.632-.684-1.255-1.364-1.87-2.049 0 0-8.918-9.934-10.885-12.125-2.174 3.089-1.973 7.628.575 10.449l25.305 28.189c.457.509.709 1.179.708 1.886-.006.679-.249 1.346-.684 1.829-.219.245-5.198 5.791-5.568 6.204-.552.615-1.137.744-1.53.744-.41 0-1.026-.142-1.635-.821-5.615-6.255-24.934-27.777-25.538-28.452-7.431-8.485-7.353-22.189.163-30.561M8994.082 110.353c3.68-4.099 8.58-6.357 13.797-6.357 5.217 0 10.117 2.258 13.797 6.357 4.179 4.655 6.216 11.096 5.589 17.67-.056.592-.071 1.107.301 1.522 1.58 1.76 3.159 3.52 4.739 5.28 3.071-10.278.679-21.722-6.21-29.396-4.857-5.411-11.327-8.391-18.217-8.391-6.889 0-13.358 2.98-18.216 8.391-9.672 12.179-9.511 29.433-.215 40.343.044.05 2.014 2.247 25.43 28.331 7.578 8.591 14.714-2.393 23.759-12.672.014-.015.027-.03.036-.045-1.287-1.432-22.677-25.261-22.677-25.261-.313-.348-.626-.697-.939-1.045l.001-.001c-.623-.695-1.247-1.39-1.871-2.085 0 0-8.925-9.942-10.912-12.156-2.182 3.084-1.987 7.635.555 10.466l25.32 28.206c.457.51.709 1.18.709 1.888-.001.684-.247 1.351-.676 1.828-.219.245-5.196 5.789-5.567 6.202-.552.615-1.137.744-1.53.744-.409 0-1.025-.142-1.634-.821-5.613-6.253-24.928-27.77-25.532-28.445-7.428-8.482-7.35-22.183.163-30.553" fill="#008080"/><g><path d="M9335.643 161.415c.023-.004.05-.004.078.003-1.281-1.426-22.619-25.192-22.621-25.19l-.235-.259c-.082-.083-.168-.161-.246-.247-.08-.085-.16-.172-.239-.259-.079-.087-.159-.174-.238-.262l-.062-.071c-.659-.734-1.281-1.494-1.866-2.228.018-.02-.068-.153-.241-.374s-.436-.529-.771-.902c-.338-.377-.748-.823-1.209-1.318-.462-.495-.974-1.04-1.515-1.613-.532-.592-1.087-1.211-1.644-1.83-.552-.616-1.106-1.233-1.64-1.828-.513-.647-1.037-1.284-1.548-1.852-.496-.553-.956-1.048-1.355-1.46-.399-.411-.733-.739-.974-.961-2.197 3.099-2.013 7.669.522 10.526 8.419 9.412 16.85 18.821 25.289 28.223.077.085.151.173.223.262.05.055.152.051.205.101.04.064.078.129.113.196.031.063.011.073.04.142.029.069.055.139.078.21.023.072.044.145.062.22.017.072.03.145.041.22.012.076-.001.128 0 .2.001.084.005.174.011.259.021.194.026.387.017.576-.028.167-.072.331-.129.488-.058.157-.129.308-.213.449-.084.141-.192.285-.3.405-.22.246-5.186 5.777-5.557 6.189-.551.613-1.136.742-1.53.74-.422-.015-1.084-.211-1.693-.889-5.618-6.259-24.885-27.757-25.469-28.45-7.401-8.472-7.311-22.145.197-30.494.537-.584 1.099-1.125 1.679-1.623.582-.496 1.181-.949 1.792-1.362.613-.428 1.246-.816 1.897-1.164.654-.344 1.324-.647 2.009-.907.689-.29 1.378-.541 2.069-.739.695-.193 1.397-.335 2.108-.426.711-.091 1.432-.129 2.164-.116 5.2.004 10.084 2.261 13.752 6.356 2.082 2.327 3.63 5.099 4.579 8.112.95 3.012 1.301 6.264.988 9.549-.056.6-.07 1.123.304 1.545 1.58 1.764 3.16 3.528 4.742 5.29 3.063-10.252.677-21.668-6.195-29.323-4.845-5.397-11.299-8.37-18.171-8.37s-13.326 2.973-18.171 8.371c-9.648 12.149-9.487 29.36-.214 40.244.045.049 2.01 2.241 25.368 28.262 7.56 8.569 14.678-2.387 23.702-12.64.003.003.008.009.017.019" fill="#008080"/></g><g><path d="M9632.666 161.364c.053.03.124.08.216.158-1.261-1.404-22.426-24.962-22.435-24.953l-.238-.251c-.092-.07-.204-.118-.284-.201-.084-.079-.168-.164-.25-.25-.084-.086-.167-.175-.249-.266l-.269-.302c-.776-.864-1.393-1.838-1.851-2.702.076-.085.069-.254-.019-.472-.088-.219-.27-.489-.543-.793-.288-.321-.664-.696-1.112-1.112-.448-.42-.967-.885-1.533-1.389-.528-.588-1.079-1.2-1.63-1.815-.536-.597-1.073-1.195-1.59-1.771-.427-.8-.97-1.632-1.593-2.326-.561-.624-1.109-1.157-1.602-1.566-.493-.408-.915-.691-1.222-.835-2.248 3.15-2.104 7.785.411 10.727 8.35 9.443 16.749 18.877 25.189 28.278.161.18.321.362.477.546.065.038.363-.185.455-.18.04.063.078.128.113.194.021.051-.175-.135-.146-.066.026.065.049.132.069.2.024.071.045.144.063.217.011.067.019.134.025.202.012.075-.074.045-.089.098-.017.11-.012.236.015.343.089.27.164.538.224.802-.024.17-.066.338-.123.5-.057.161-.129.316-.216.46-.085.142-.233.331-.343.453-.223.249-5.153 5.736-5.524 6.144-.551.608-1.136.735-1.531.727-.465-.066-1.279-.436-1.888-1.115-5.633-6.276-24.742-27.71-25.259-28.467-7.311-8.436-7.181-22.015.308-30.296.576-.579 1.172-1.097 1.778-1.557.612-.454 1.222-.851 1.824-1.207.607-.42 1.235-.801 1.883-1.142.661-.326 1.339-.612 2.032-.856.708-.372 1.372-.715 2-.974.65-.235 1.294-.401 1.943-.491.648-.09 1.31-.104 1.996-.046 5.144.019 9.978 2.274 13.606 6.352 2.056 2.325 3.584 5.094 4.521 8.101.937 3.007 1.283 6.253.973 9.532-.056.626-.065 1.175.317 1.622 1.576 1.778 3.159 3.552 4.747 5.323 3.038-10.169.672-21.491-6.143-29.083-4.806-5.353-11.207-8.302-18.023-8.301-6.815 0-13.215 2.949-18.021 8.304-9.568 12.05-9.407 29.121-.209 39.917.045.05 1.995 2.225 25.162 28.034 7.5 8.5 14.561-2.365 23.513-12.532.012.014.035.039.075.083" fill="#008080"/></g><g><path d="M9929.708 161.269c.11.094.263.236.474.446-1.224-1.362-22.067-24.533-22.087-24.51l-.244-.237c-.112-.046-.271-.038-.354-.115-.093-.067-.186-.148-.273-.233-.092-.085-.183-.176-.27-.274l-.655-.732c-.993-1.105-1.6-2.48-1.823-3.585.186-.207.327-.441.397-.657.071-.215.039-.413-.119-.589-.194-.216-.507-.459-.93-.728-.423-.278-.955-.596-1.569-.972-.519-.577-1.061-1.179-1.604-1.784-.505-.562-1.01-1.125-1.496-1.666-.265-1.086-.844-2.282-1.677-3.209-.68-.758-1.392-1.362-2.06-1.764-.668-.402-1.255-.602-1.687-.6-2.341 3.245-2.271 7.999.205 11.1 8.222 9.501 16.563 18.981 25.001 28.381.321.357.638.715.954 1.076.092.006.754-.624.921-.704.04.061.077.125.111.19.001.028-.521-.522-.492-.454.021.059.039.12.054.181.023.07.043.142.061.214.001.055 0 .11-.004.166.012.074-.21-.108-.256-.09-.05.156-.042.35.024.499.218.41.421.819.61 1.224-.017.175-.054.351-.11.521-.056.169-.131.332-.224.481-.087.143-.309.415-.423.542-.228.254-5.091 5.658-5.462 6.06-.548.599-1.134.721-1.533.704-.544-.162-1.643-.857-2.252-1.536-5.661-6.31-24.474-27.625-24.868-28.499-7.141-8.369-6.938-21.774.516-29.927.647-.571 1.31-1.046 1.963-1.436.667-.376 1.299-.668 1.882-.917.597-.404 1.215-.771 1.859-1.1.675-.295 1.367-.549 2.073-.762.745-.525 1.362-1.038 1.874-1.411.565-.315 1.1-.525 1.632-.613.533-.089 1.085-.057 1.686.083 5.04.047 9.778 2.298 13.334 6.346 2.007 2.323 3.498 5.084 4.412 8.081.914 2.998 1.249 6.232.944 9.5-.056.674-.054 1.272.341 1.765 1.571 1.803 3.157 3.599 4.758 5.383 2.991-10.012.661-21.16-6.049-28.635-4.731-5.27-11.033-8.173-17.743-8.172-6.71.002-13.011 2.906-17.742 8.179-9.42 11.867-9.26 28.676-.202 39.308.046.051 1.968 2.194 24.781 27.609 7.387 8.372 14.342-2.323 23.159-12.33.03.033.084.094.182.202" fill="#008080"/></g><g><path d="M10226.774 161.119c.2.195.484.482.882.902-1.165-1.297-21.498-23.855-21.538-23.811l-.253-.215c-.142-.006-.377.09-.465.022-.106-.048-.212-.123-.308-.206-.104-.083-.206-.179-.303-.286l-1.266-1.412c-1.335-1.488-1.928-3.495-1.777-4.983.359-.4.733-.737 1.054-.947.321-.21.527-.294.55-.268-.045-.049-.258-.083-.641-.121-.384-.054-.937-.138-1.625-.312-.507-.562-1.035-1.147-1.565-1.736-.454-.506-.909-1.013-1.346-1.499-.01-1.539-.645-3.309-1.809-4.606-.871-.97-1.841-1.686-2.786-2.078-.945-.392-1.793-.46-2.421-.228-2.491 3.396-2.535 8.34-.121 11.691 8.019 9.593 16.268 19.146 24.705 28.544.571.636 1.139 1.274 1.705 1.914.136-.046 1.374-1.32 1.659-1.534.039.06.075.122.109.184-.031-.007-1.068-1.132-1.04-1.066.012.049.022.099.029.151.023.068.043.138.06.208-.014.036-.031.073-.051.111.012.072-.425-.351-.518-.388-.103.228-.091.529.036.745.421.632.828 1.263 1.221 1.89-.005.184-.035.371-.089.555-.055.182-.135.358-.236.515-.09.145-.429.547-.55.681-.236.263-4.994 5.537-5.365 5.929-.545.584-1.131.7-1.535.666-.669-.312-2.219-1.522-2.827-2.2-5.705-6.365-24.051-27.492-24.25-28.55-6.874-8.264-6.555-21.394.844-29.345.76-.557 1.528-.965 2.256-1.244.753-.251 1.42-.376 1.973-.457.581-.379 1.183-.725 1.82-1.036.698-.243 1.412-.448 2.139-.613.802-.765 1.345-1.548 1.675-2.102.431-.441.792-.719 1.142-.805.349-.086.728.019 1.193.289 4.877.089 9.463 2.334 12.904 6.335 1.929 2.318 3.363 5.068 4.24 8.05.877 2.983 1.196 6.198.898 9.448-.054.751-.037 1.426.379 1.991 1.563 1.843 3.156 3.672 4.775 5.48 2.918-9.765.646-20.637-5.898-27.927-4.614-5.14-10.76-7.97-17.303-7.968-6.544.003-12.687 2.837-17.299 7.982-9.186 11.575-9.028 27.971-.192 38.343.048.052 1.925 2.147 24.179 26.937 7.207 8.17 13.995-2.257 22.599-12.011.058.064.163.181.351.391" fill="#008080"/></g><g><path d="M10523.871 160.899c.332.343.806.843 1.478 1.57-1.079-1.202-20.668-22.864-20.735-22.789l-.266-.183c-.188.05-.533.276-.627.221-.125-.02-.252-.087-.361-.167-.121-.08-.241-.183-.35-.304l-2.158-2.406c-1.837-2.046-2.408-4.977-1.712-7.024.613-.682 1.327-1.17 2.014-1.373.687-.202 1.24-.119 1.529.203.173.193.105.466-.219.766-.327.272-.91.53-1.707.653-.488-.539-.997-1.1-1.506-1.666-.382-.425-.764-.851-1.128-1.257.362-2.199-.356-4.81-2.004-6.646-1.149-1.279-2.495-2.159-3.845-2.537-1.35-.377-2.579-.252-3.494.317-2.709 3.615-2.923 8.836-.597 12.552 7.721 9.728 15.836 19.387 24.27 28.783.937 1.044 1.873 2.09 2.805 3.138.2-.12 2.278-2.335 2.736-2.745.038.057.074.116.107.176-.078-.061-1.869-2.026-1.842-1.962.001.034-.002.069-.006.106.021.066.041.133.057.201-.036.009-.075.019-.117.029.011.07-.74-.706-.904-.824-.18.334-.161.793.056 1.106.718.956 1.422 1.912 2.113 2.864.012.196-.007.401-.06.604-.053.201-.139.394-.252.563-.095.15-.606.742-.735.886-.248.276-4.852 5.36-5.224 5.737-.54.563-1.127.669-1.539.611-.852-.532-3.059-2.493-3.667-3.172-5.769-6.443-23.433-27.295-23.346-28.624-6.483-8.109-5.995-20.837 1.324-28.494.924-.536 1.845-.845 2.682-.962.88-.07 1.598.048 2.107.214.558-.343 1.137-.657 1.765-.941.73-.17 1.476-.302 2.235-.395.886-1.117 1.32-2.295 1.382-3.113.236-.624.344-1.002.426-1.085.081-.084.206.128.475.588 4.636.153 9.002 2.388 12.274 6.32 1.817 2.311 3.166 5.044 3.988 8.004.823 2.961 1.12 6.149.832 9.372-.053.865-.012 1.651.434 2.322 1.551 1.901 3.153 3.78 4.801 5.621 2.81-9.403.622-19.873-5.679-26.892-4.443-4.949-10.36-7.673-16.659-7.669-6.3.004-12.215 2.736-16.653 7.692-8.843 11.15-8.688 26.943-.175 36.934.05.056 1.862 2.077 23.297 25.956 6.946 7.873 13.489-2.161 21.781-11.546.099.111.278.31.599.667" fill="#008080"/></g><g><path d="M10821.005 160.593c.515.549 1.253 1.345 2.306 2.497-.96-1.069-19.514-21.488-19.62-21.371l-.283-.137c-.252.13-.751.534-.853.497-.152.019-.307-.037-.433-.112-.146-.076-.29-.187-.417-.329l-3.397-3.786c-2.533-2.822-3.073-7.036-1.62-9.858.963-1.074 2.152-1.772 3.347-1.963 1.195-.192 2.23.122 2.887.855.476.53.61 1.229.367 1.999-.248.725-.872 1.457-1.82 1.991-.463-.508-.944-1.035-1.426-1.569-.28-.312-.561-.625-.824-.919.879-3.116.047-6.894-2.274-9.48-1.535-1.709-3.405-2.816-5.316-3.173-1.912-.358-3.671.035-4.984 1.072-3.012 3.92-3.461 9.525-1.259 13.75 7.309 9.914 15.237 19.721 23.668 29.113 1.446 1.612 2.89 3.224 4.332 4.839.287-.224 3.534-3.746 4.231-4.428.037.053.072.108.103.164-.142-.134-2.979-3.266-2.953-3.206-.017.014-.036.029-.057.045.021.062.039.126.055.19-.068-.028-.138-.056-.211-.083.01.065-1.177-1.2-1.438-1.429-.287.48-.259 1.157.082 1.605 1.13 1.407 2.248 2.814 3.352 4.217.036.212.031.443-.019.673-.05.226-.144.445-.274.631-.102.154-.851 1.01-.994 1.169-.264.294-4.653 5.113-5.026 5.471-.533.532-1.122.625-1.544.534-1.106-.838-4.227-3.843-4.835-4.521-5.857-6.552-22.574-27.022-22.09-28.727-5.941-7.896-5.217-20.064 1.989-27.312 1.154-.508 2.287-.68 3.276-.572 1.056.183 1.844.638 2.293 1.146.525-.293 1.072-.563 1.686-.809.776-.067 1.566-.098 2.369-.092 1.003-1.607 1.286-3.333.977-4.516-.036-.881-.279-1.397-.57-1.476-.291-.079-.517.28-.522 1.005 4.302.24 8.362 2.462 11.4 6.299 1.66 2.302 2.891 5.011 3.639 7.94.748 2.93 1.013 6.081.74 9.267-.052 1.022.021 1.963.51 2.781 1.534 1.982 3.149 3.929 4.836 5.816 2.66-8.9.59-18.811-5.374-25.454-4.205-4.683-9.804-7.26-15.766-7.255-5.961.006-11.557 2.595-15.755 7.292-8.367 10.558-8.216 25.513-.151 34.977.052.059 1.774 1.98 22.073 24.592 6.583 7.462 12.785-2.026 20.645-10.899.156.174.438.488.942 1.049" fill="#008080"/></g><g><path d="M11118.182 160.19c.758.82 1.844 2.007 3.401 3.72-.803-.894-17.992-19.671-18.149-19.496l-.306-.078c-.335.234-1.037.875-1.151.863-.188.07-.38.029-.529-.041-.178-.07-.353-.193-.503-.36l-5.035-5.61c-3.453-3.847-3.953-9.756-1.499-13.603 1.428-1.591 3.241-2.565 5.108-2.743 1.866-.177 3.538.443 4.682 1.718.876.975 1.277 2.236 1.141 3.626-.144 1.325-.823 2.682-1.97 3.76-.43-.466-.875-.948-1.319-1.44-.146-.163-.293-.327-.424-.473 1.563-4.329.579-9.648-2.631-13.223-2.044-2.277-4.605-3.684-7.259-4.015-2.654-.331-5.113.415-6.952 2.07-3.411 4.323-4.17 10.436-2.133 15.332 6.765 10.161 14.445 20.163 22.873 29.551 2.118 2.36 4.234 4.721 6.348 7.084.404-.361 5.195-5.609 6.208-6.65.035.048.068.097.098.148-.228-.23-4.447-4.905-4.423-4.849-.039-.013-.079-.025-.122-.036.019.058.036.116.05.176-.109-.078-.221-.156-.335-.233.01.061-1.754-1.85-2.143-2.228-.429.674-.387 1.64.117 2.265 1.675 2.003 3.338 4.005 4.989 6.005.067.234.081.497.035.763-.046.26-.152.513-.304.72-.11.161-1.175 1.366-1.334 1.544-.286.318-4.391 4.788-4.766 5.119-.524.492-1.115.568-1.551.433-1.442-1.241-5.769-5.625-6.377-6.303-5.974-6.696-21.439-26.662-20.433-28.863-5.223-7.613-4.188-19.043 2.869-25.752 1.457-.469 2.871-.46 4.06-.055 1.289.516 2.17 1.417 2.539 2.377.481-.228.987-.438 1.583-.636.835.07 1.685.172 2.545.309 1.157-2.253 1.241-4.703.442-6.37-.396-1.218-1.102-1.918-1.885-1.991-.782-.073-1.474.482-1.84 1.556 3.862.356 7.517 2.56 10.246 6.27 1.453 2.29 2.529 4.967 3.178 7.856.649 2.89.871 5.991.617 9.129-.048 1.228.067 2.375.611 3.386 1.513 2.09 3.145 4.126 4.884 6.076 2.462-8.238.546-17.409-4.972-23.556-3.89-4.333-9.071-6.716-14.585-6.707-5.514.008-10.689 2.409-14.57 6.761-7.738 9.777-7.592 23.625-.121 32.393.056.063 1.659 1.851 20.457 22.791 6.103 6.918 11.856-1.849 19.145-10.045.231.258.649.723 1.395 1.555" fill="#008080"/></g><g><path d="M11415.401 159.692c1.056 1.155 2.573 2.823 4.75 5.23-.609-.678-16.113-17.429-16.332-17.184l-.335-.004c-.439.363-1.39 1.296-1.518 1.313-.232.133-.47.111-.647.048-.219-.062-.433-.201-.612-.4l-7.054-7.859c-4.587-5.111-5.038-13.112-1.35-18.222 2.001-2.229 4.586-3.546 7.28-3.705 2.694-.16 5.152.837 6.897 2.781 1.368 1.524 2.099 3.479 2.095 5.635-.015 2.063-.762 4.193-2.155 5.941-.387-.415-.788-.841-1.187-1.282.019.021.038.041.07.077 2.406-5.823 1.235-13.044-3.07-17.84-2.673-2.977-6.087-4.755-9.657-5.053-3.57-.297-6.893.885-9.381 3.301-3.903 4.82-5.045 11.56-3.21 17.284 6.093 10.466 13.469 20.708 21.891 30.09 2.947 3.283 5.893 6.568 8.837 9.854.547-.529 7.242-7.906 8.645-9.391.033.042.064.085.092.129-.333-.35-6.257-6.926-6.236-6.876-.066-.046-.133-.092-.203-.136.017.052.032.105.046.158-.161-.139-.323-.278-.488-.417.009.055-2.466-2.654-3.014-3.213-.603.913-.546 2.235.161 3.079 2.346 2.738 4.682 5.475 7.007 8.209.106.262.144.565.102.875-.042.303-.161.596-.341.83-.121.169-1.574 1.806-1.754 2.007-.312.347-4.068 4.386-4.445 4.684-.512.444-1.106.498-1.559.309-1.856-1.739-7.671-7.825-8.279-8.502-6.118-6.873-20.04-26.217-18.387-29.031-4.34-7.264-2.921-17.783 3.954-23.825 1.83-.423 3.59-.191 5.027.581 1.575.927 2.571 2.378 2.841 3.895.428-.146.882-.284 1.456-.421.909.237 1.831.504 2.763.802 1.347-3.05 1.185-6.393-.219-8.656-.839-1.634-2.117-2.561-3.506-2.627-1.389-.065-2.654.73-3.467 2.235 3.319.498 6.475 2.682 8.822 6.236 1.199 2.274 2.083 4.913 2.609 7.752.527 2.839.697 5.879.467 8.958-.045 1.483.122 2.883.736 4.134 1.485 2.222 3.138 4.369 4.941 6.394 2.217-7.419.493-15.679-4.476-21.214-3.502-3.9-8.165-6.044-13.128-6.031-4.962.012-9.619 2.18-13.107 6.107-6.963 8.814-6.823 21.296-.084 29.205.061.068 1.517 1.692 18.463 20.569 5.512 6.247 10.71-1.631 17.294-8.991.324.361.909 1.012 1.955 2.178" fill="#008080"/></g><g><path d="M11712.647 159.134c1.39 1.53 3.39 3.739 6.263 6.923-.392-.436-14.007-14.915-14.296-14.592l-.368.079c-.554.507-1.785 1.768-1.929 1.819-.282.203-.57.202-.78.147-.264-.055-.521-.21-.732-.445l-9.318-10.382c-5.86-6.528-6.255-16.873-1.184-23.401 2.643-2.945 6.093-4.644 9.716-4.784 3.623-.14 6.961 1.279 9.38 3.975 1.921 2.139 3.021 4.872 3.166 7.886.129 2.892-.694 5.888-2.363 8.387-.341-.357-.691-.721-1.039-1.104.204.228.408.454.624.694 3.351-7.5 1.971-16.853-3.563-23.017-3.378-3.763-7.749-5.956-12.346-6.217-4.597-.261-8.887 1.41-12.103 4.681-4.456 5.377-6.027 12.82-4.419 19.472 5.34 10.808 12.374 21.32 20.791 30.695 3.877 4.319 7.752 8.639 11.626 12.961.708-.719 9.538-10.484 11.378-12.466.031.035.06.071.085.108-.45-.484-8.286-9.193-8.268-9.149-.096-.084-.194-.167-.294-.249.015.046.029.092.04.139-.217-.208-.437-.416-.658-.623.007.048-3.265-3.555-3.991-4.319-.797 1.182-.724 2.903.21 3.992 3.1 3.562 6.19 7.123 9.271 10.681.149.293.214.642.177 1-.037.35-.172.69-.382.954-.133.179-2.022 2.298-2.226 2.525-.342.381-3.706 3.936-4.084 4.197-.5.389-1.096.419-1.569.169-2.32-2.296-9.804-10.289-10.411-10.967-6.28-7.071-18.472-25.718-16.095-29.219-3.348-6.872-1.499-16.37 5.171-21.666 2.249-.37 4.397.112 6.111 1.296 1.897 1.387 3.022 3.455 3.181 5.598.368-.055.764-.113 1.313-.182.992.426 1.995.878 3.007 1.356 1.56-3.943 1.123-8.288-.959-11.22-1.335-2.101-3.256-3.281-5.325-3.339-2.068-.057-3.977 1.008-5.29 2.996 2.71.658 5.307 2.818 7.226 6.197.913 2.258 1.581 4.852 1.971 7.636.39 2.783.501 5.754.298 8.765-.042 1.77.184 3.453.875 4.973 1.456 2.371 3.132 4.641 5.006 6.752 1.944-6.502.433-13.739-3.919-18.587-3.067-3.417-7.15-5.291-11.495-5.275-4.344.016-8.418 1.923-11.466 5.375-6.095 7.734-5.962 18.684-.042 25.63.066.074 1.357 1.514 16.226 18.077 4.848 5.495 9.425-1.386 15.219-7.81.428.478 1.201 1.338 2.583 2.878" fill="#008080"/></g><g><path d="M12009.894 158.571c1.728 1.909 4.214 4.663 7.788 8.63-.173-.192-11.883-12.381-12.243-11.978l-.4.161c-.67.653-2.184 2.244-2.345 2.329-.331.274-.671.294-.912.247-.31-.047-.611-.219-.855-.49l-11.601-12.924c-7.142-7.957-7.48-20.666-1.015-28.622 3.29-3.666 7.613-5.752 12.171-5.872 4.559-.12 8.785 1.726 11.884 5.177 2.478 2.761 3.95 6.277 4.244 10.156.275 3.727-.625 7.596-2.572 10.853-.294-.299-.593-.6-.89-.924.391.435.781.869 1.183 1.315 4.303-9.19 2.712-20.692-4.061-28.236-4.088-4.554-9.423-7.166-15.055-7.39-5.632-.224-10.899 1.94-14.847 6.072-5.014 5.94-7.017 14.091-5.638 21.678 4.581 11.152 11.271 21.936 19.681 31.305 4.815 5.363 9.627 10.727 14.439 16.092.871-.909 11.852-13.082 14.133-15.565.029.028.055.057.078.086-.569-.618-10.332-11.477-10.316-11.439-.128-.122-.256-.242-.386-.362.013.039.024.078.034.119-.275-.278-.552-.555-.831-.831.007.041-4.069-4.463-4.974-5.433-.995 1.452-.904 3.575.259 4.912 3.859 4.392 7.709 8.784 11.552 13.173.193.323.284.718.253 1.126-.031.397-.183.784-.424 1.078-.145.188-2.473 2.794-2.701 3.048-.371.414-3.34 3.482-3.721 3.706-.487.334-1.086.339-1.577.029-2.789-2.86-11.955-12.775-12.562-13.452-6.443-7.273-16.89-25.216-13.783-29.409-2.349-6.478-.066-14.947 6.397-19.49 2.671-.318 5.21.418 7.204 2.015 2.222 1.853 3.476 4.542 3.523 7.315.308.037.646.06 1.169.061 1.076.615 2.161 1.253 3.254 1.913 1.775-4.844 1.06-10.197-1.706-13.804-1.836-2.571-4.403-4.008-7.158-4.057-2.754-.049-5.311 1.288-7.127 3.762 2.095.82 4.128 2.956 5.616 6.158.624 2.241 1.076 4.792 1.328 7.519.252 2.727.303 5.629.128 8.573-.039 2.058.246 4.027 1.016 5.817 1.425 2.52 3.124 4.916 5.071 7.113 1.668-5.577.373-11.785-3.358-15.94-2.628-2.928-6.127-4.532-9.848-4.512-3.721.02-7.209 1.665-9.814 4.636-5.218 6.645-5.092 16.053 0 22.027.072.08 1.197 1.335 13.972 15.566 4.18 4.737 8.13-1.139 13.128-6.619.533.594 1.495 1.665 3.215 3.582" fill="#008080"/></g><g><path d="M12307.123 158.051c2.039 2.258 4.976 5.516 9.199 10.208.029.034-9.919-10.037-10.345-9.561l-.43.238c-.778.787-2.553 2.684-2.729 2.8-.377.34-.764.38-1.036.34-.352-.04-.693-.227-.967-.532l-13.712-15.275c-8.328-9.278-8.615-24.174-.859-33.452 3.889-4.332 9.018-6.775 14.442-6.877 5.424-.101 10.471 2.138 14.198 6.29 2.993 3.334 4.81 7.575 5.242 12.254.41 4.5-.56 9.176-2.765 13.133-.25-.244-.503-.488-.753-.758.564.628 1.128 1.254 1.7 1.891 5.184-10.753 3.398-24.243-4.52-33.064-4.746-5.286-10.973-8.285-17.562-8.474-6.589-.19-12.758 2.43-17.386 7.359-5.528 6.459-7.932 15.265-6.764 23.717 3.879 11.471 10.25 22.507 18.655 31.869 5.681 6.329 11.361 12.658 17.04 18.989 1.021-1.086 13.992-15.485 16.681-18.431.027.021.051.043.072.066-.68-.743-12.225-13.591-12.212-13.558-.155-.157-.312-.312-.47-.467.011.033.021.066.029.1-.329-.341-.659-.682-.99-1.023.005.035-4.814-5.303-5.885-6.464-1.176 1.703-1.07 4.198.304 5.764 4.562 5.16 9.116 10.32 13.664 15.478.233.352.349.788.322 1.243-.027.441-.192.87-.462 1.192-.157.197-2.891 3.254-3.141 3.532-.399.445-3.002 3.062-3.385 3.252-.475.283-1.076.265-1.586-.102-3.222-3.379-13.944-15.074-14.55-15.75-6.594-7.458-15.428-24.751-11.645-29.584-1.425-6.114 1.259-13.63 7.532-17.477 3.061-.269 5.962.7 8.214 2.681 2.522 2.282 3.896 5.547 3.84 8.902.252.122.536.221 1.036.285 1.153.791 2.314 1.6 3.481 2.429 1.974-5.676 1.002-11.964-2.396-16.194-2.299-3.007-5.465-4.68-8.853-4.721-3.388-.042-6.545 1.547-8.828 4.472 1.528.969 3.039 3.082 4.128 6.121.358 2.226.609 4.736.733 7.41.124 2.675.121 5.513-.029 8.394-.036 2.326.304 4.559 1.146 6.6 1.397 2.658 3.118 5.17 5.131 7.445 1.413-4.721.318-9.975-2.838-13.491-2.223-2.476-5.181-3.829-8.326-3.805-3.145.023-6.09 1.425-8.285 3.952-4.408 5.638-4.288 13.618.04 18.694.076.085 1.048 1.169 11.887 13.243 3.561 4.036 6.931-.911 11.193-5.517.63.702 1.766 1.968 3.8 4.234" fill="#008080"/></g><g><path d="M12604.324 157.593c2.314 2.566 5.646 6.267 10.439 11.596.208.233-8.192-7.977-8.676-7.437l-.457.307c-.872.905-2.876 3.07-3.066 3.213-.418.398-.847.455-1.144.422-.389-.034-.766-.234-1.067-.569l-15.567-17.342c-9.371-10.44-9.612-27.257-.723-37.696 4.416-4.919 10.254-7.676 16.439-7.761 6.185-.086 11.954 2.5 16.233 7.267 3.446 3.838 5.565 8.717 6.119 14.099.528 5.179-.504 10.565-2.935 15.139-.212-.198-.424-.39-.631-.613.715.796 1.431 1.592 2.154 2.396 5.958-12.127 4-27.364-4.925-37.307-5.323-5.929-12.334-9.269-19.765-9.428-7.431-.159-14.393 2.861-19.617 8.491-5.982 6.915-8.737 16.298-7.755 25.51 3.261 11.751 9.353 23.008 17.753 32.365 6.443 7.177 12.885 14.355 19.326 21.534 1.153-1.241 15.874-17.597 18.922-20.95.024.015.047.031.066.048-.776-.853-13.889-15.448-13.877-15.421-.181-.186-.363-.373-.546-.559.01.028.018.056.025.085-.375-.398-.752-.795-1.13-1.192.005.029-5.468-6.042-6.685-7.37-1.337 1.922-1.216 4.745.344 6.512 5.179 5.835 10.351 11.67 15.519 17.503.269.378.406.851.384 1.346-.023.48-.201.947-.497 1.294-.166.205-3.257 3.657-3.526 3.957-.424.471-2.706 2.693-3.09 2.853-.465.237-1.069.2-1.594-.217-3.602-3.837-15.692-17.094-16.298-17.771-6.727-7.62-14.142-24.342-9.766-29.738-.612-5.793 2.425-12.472 8.529-15.707 3.404-.226 6.624.948 9.103 3.266 2.786 2.66 4.266 6.43 4.118 10.298.204.197.44.362.92.481 1.22.945 2.448 1.906 3.681 2.884 2.148-6.409.95-13.518-3.003-18.296-2.706-3.389-6.398-5.27-10.344-5.305-3.945-.035-7.629 1.775-10.322 5.095 1.029 1.101 2.081 3.194 2.819 6.09.124 2.212.199 4.687.211 7.315.012 2.629-.04 5.411-.168 8.237-.033 2.56.355 5.026 1.261 7.286 1.372 2.78 3.112 5.394 5.184 7.739 1.188-3.97.269-8.386-2.382-11.339-1.866-2.079-4.35-3.212-6.987-3.185-2.638.027-5.106 1.215-6.941 3.352-3.696 4.753-3.582 11.477.074 15.764.081.09.917 1.023 10.054 11.202 3.018 3.419 5.878-.711 9.493-4.549.715.797 2.005 2.234 4.314 4.806" fill="#008080"/></g><g><path d="M12901.497 157.2c2.549 2.831 6.221 6.912 11.504 12.788.361.403-6.709-6.207-7.243-5.612l-.479.365c-.954 1.007-3.155 3.402-3.356 3.569-.452.448-.917.52-1.237.491-.421-.028-.828-.239-1.152-.6l-17.161-19.117c-10.267-11.438-10.469-29.905-.606-41.343 4.868-5.422 11.315-8.449 18.154-8.52 6.838-.072 13.228 2.811 17.981 8.107 3.835 4.271 6.214 9.698 6.873 15.684.629 5.762-.457 11.758-3.082 16.86-.179-.156-.355-.305-.527-.487.846.942 1.692 1.883 2.544 2.831 6.624-13.307 4.519-30.046-5.272-40.952-5.819-6.482-13.504-10.114-21.657-10.248-8.154-.133-15.798 3.232-21.534 9.463-6.371 7.308-9.428 17.185-8.606 27.051 2.731 11.991 8.583 23.438 16.979 32.79 7.097 7.907 14.194 15.814 21.29 23.721 1.266-1.374 17.489-19.411 20.845-23.114.023.01.044.021.061.033-.859-.947-15.317-17.043-15.307-17.021-.203-.213-.406-.426-.61-.638.008.023.015.047.021.071-.416-.446-.833-.892-1.251-1.338.004.025-6.03-6.675-7.372-8.148-1.474 2.112-1.341 5.215.379 7.156 5.709 6.415 11.413 12.829 17.112 19.243.299.399.456.904.437 1.434-.019.513-.209 1.012-.526 1.381-.175.211-3.573 4.003-3.858 4.321-.445.495-2.451 2.377-2.837 2.51-.455.199-1.061.145-1.6-.314-3.929-4.23-17.193-18.831-17.799-19.507-6.841-7.761-13.038-23.991-8.151-29.871.085-5.517 3.425-11.478 9.385-14.186 3.699-.189 7.191 1.161 9.866 3.768 3.012 2.984 4.583 7.189 4.357 11.497.161.261.357.483.819.65 1.279 1.078 2.564 2.169 3.854 3.273 2.298-7.038.905-14.851-3.525-20.1-3.056-3.718-7.199-5.778-11.624-5.807-4.424-.03-8.56 1.971-11.605 5.631.599 1.213 1.257 3.29 1.695 6.063-.077 2.2-.154 4.644-.239 7.233-.084 2.589-.177 5.323-.287 8.101-.03 2.762.399 5.428 1.36 7.877 1.351 2.885 3.107 5.585 5.229 7.991.996-3.324.227-7.021-1.99-9.491-1.56-1.737-3.635-2.681-5.837-2.651-2.203.03-4.261 1.034-5.787 2.836-3.083 3.992-2.974 9.639.104 13.247.084.094.805.898 8.48 9.448 2.551 2.889 4.974-.538 8.032-3.718.789.879 2.211 2.464 4.756 5.299" fill="#008080"/></g><g><path d="M13198.644 156.865c2.75 3.056 6.712 7.461 12.412 13.804.491.548-5.445-4.699-6.021-4.056l-.498.414c-1.023 1.093-3.393 3.685-3.603 3.873-.482.489-.978.574-1.317.55-.448-.023-.881-.245-1.225-.627l-18.519-20.631c-11.031-12.287-11.199-32.162-.505-44.45 5.252-5.852 12.219-9.108 19.614-9.168 7.396-.059 14.314 3.077 19.472 8.823 4.167 4.641 6.767 10.534 7.515 17.035.716 6.26-.416 12.776-3.207 18.329-.15-.122-.297-.234-.438-.381.957 1.065 1.914 2.13 2.876 3.201 7.191-14.313 4.96-32.332-5.567-44.059-6.242-6.953-14.501-10.834-23.271-10.946-8.77-.111-16.995 3.547-23.167 10.291-6.703 7.642-10.017 17.941-9.331 28.364 2.279 12.196 7.926 23.805 16.318 33.154 7.655 8.527 15.31 17.055 22.964 25.584 1.363-1.487 18.867-20.957 22.486-24.959.021.006.04.013.057.02-.93-1.027-16.536-18.403-16.528-18.384-.22-.235-.442-.47-.664-.705.007.019.013.039.018.058-.45-.487-.901-.974-1.353-1.461.003.021-6.51-7.216-7.958-8.811-1.592 2.272-1.448 5.616.407 7.703 6.161 6.91 12.318 13.819 18.471 20.727.325.417.497.95.482 1.509-.017.541-.215 1.068-.551 1.454-.182.217-3.841 4.3-4.141 4.633-.462.515-2.233 2.107-2.62 2.218-.448.166-1.055.097-1.606-.398-4.208-4.565-18.473-20.31-19.079-20.986-6.938-7.88-12.097-23.692-6.775-29.984.68-5.282 4.278-10.63 10.115-12.89 3.95-.158 7.676 1.342 10.517 4.196 3.205 3.261 4.853 7.836 4.561 12.518.125.316.285.587.733.795 1.329 1.191 2.662 2.392 4 3.605 2.426-7.574.868-15.988-3.969-21.638-3.354-3.998-7.883-6.21-12.715-6.235-4.832-.025-9.354 2.138-12.699 6.088.234 1.309.556 3.372.737 6.039-.249 2.19-.455 4.608-.622 7.163-.167 2.556-.294 5.248-.388 7.987-.028 2.934.436 5.769 1.443 8.38 1.333 2.973 3.104 5.749 5.269 8.205.831-2.773.191-5.857-1.656-7.915-1.299-1.446-3.026-2.229-4.858-2.197-1.831.032-3.54.88-4.802 2.396-2.562 3.345-2.457 8.072.129 11.103.087.097.709.791 7.138 7.953 2.153 2.438 4.202-.391 6.787-3.009.851.948 2.386 2.658 5.132 5.718" fill="#008080"/></g><g><path d="M13495.769 156.58c2.921 3.248 7.13 7.929 13.185 14.669.603.672-4.368-3.414-4.98-2.732l-.515.456c-1.082 1.167-3.595 3.927-3.813 4.131-.508.526-1.029.621-1.384.602-.472-.02-.927-.25-1.287-.65l-19.677-21.92c-11.68-13.011-11.82-34.084-.419-47.096 5.581-6.218 12.989-9.669 20.859-9.719 7.87-.05 15.238 3.303 20.74 9.432 4.449 4.956 7.238 11.246 8.061 18.186.79 6.683-.38 13.641-3.312 19.578-.126-.093-.247-.173-.363-.29 1.052 1.171 2.104 2.341 3.16 3.516 7.673-15.17 5.336-34.277-5.82-46.704-6.602-7.354-15.349-11.448-24.644-11.54-9.294-.093-18.014 3.815-24.558 10.995-6.985 7.928-10.519 18.585-9.948 29.482 1.894 12.371 7.366 24.118 15.755 33.463 8.131 9.057 16.26 18.114 24.389 27.172 1.446-1.584 20.041-22.274 23.883-26.53.02.003.038.006.053.009-.99-1.095-17.572-19.561-17.566-19.545-.236-.255-.473-.509-.71-.763.006.016.011.033.015.049-.48-.522-.96-1.045-1.441-1.566.003.017-6.917-7.677-8.457-9.376-1.691 2.409-1.539 5.956.433 8.169 6.545 7.33 13.088 14.66 19.627 21.99.348.432.533.988.52 1.573-.014.565-.22 1.116-.572 1.517-.188.222-4.07 4.551-4.382 4.898-.477.532-2.048 1.876-2.436 1.969-.441.138-1.05.057-1.61-.47-4.445-4.849-19.564-21.569-20.169-22.245-7.02-7.982-11.295-23.437-5.604-30.08 1.187-5.083 5.005-9.909 10.737-11.787 4.164-.132 8.088 1.497 11.071 4.561 3.37 3.496 5.083 8.386 4.735 13.388.094.363.225.674.66.918 1.371 1.286 2.746 2.582 4.124 3.888 2.535-8.031.837-16.957-4.347-22.949-3.608-4.236-8.464-6.578-13.644-6.599-5.179-.02-10.03 2.281-13.63 6.477-.078 1.391-.041 3.442-.079 6.02-.395 2.181-.711 4.577-.948 7.103-.236 2.527-.394 5.185-.474 7.889-.026 3.08.468 6.061 1.514 8.808 1.318 3.049 3.1 5.888 5.302 8.388.691-2.305.161-4.866-1.372-6.573-1.076-1.199-2.507-1.844-4.023-1.81-1.515.034-2.927.748-3.964 2.022-2.118 2.792-2.017 6.737.15 9.276.09.1.628.7 5.996 6.68 1.814 2.054 3.546-.266 5.727-2.405.904 1.007 2.534 2.824 5.452 6.075" fill="#008080"/></g><g><path d="M13792.876 156.337c3.067 3.411 7.486 8.328 13.844 15.406.697.778-3.45-2.319-4.093-1.602l-.529.492c-1.133 1.23-3.767 4.132-3.993 4.351-.529.556-1.073.661-1.442.644-.49-.016-.965-.253-1.339-.669l-20.663-23.018c-12.234-13.629-12.35-35.723-.347-49.352 5.861-6.529 13.646-10.148 21.92-10.189 8.275-.041 16.026 3.495 21.822 9.952 4.69 5.224 7.64 11.852 8.528 19.166.852 7.044-.351 14.379-3.403 20.643-.106-.067-.205-.12-.298-.212 1.132 1.261 2.264 2.521 3.4 3.785 8.086-15.9 5.657-35.936-6.034-48.959-6.909-7.696-16.073-11.971-25.815-12.047-9.742-.077-18.883 4.044-25.744 11.596-7.226 8.171-10.946 19.134-10.475 30.436 1.567 12.519 6.89 24.383 15.277 33.726 8.535 9.508 17.07 19.016 25.604 28.524 1.515-1.666 21.04-23.396 25.073-27.868.018-.001.036-.001.05 0-1.042-1.154-18.457-20.549-18.451-20.536-.249-.27-.499-.541-.75-.811.005.013.009.026.013.04-.505-.552-1.01-1.105-1.516-1.656.002.014-7.265-8.069-8.882-9.858-1.776 2.526-1.616 6.247.454 8.567 6.874 7.689 13.745 15.378 20.613 23.066.367.447.564 1.022.553 1.628-.012.586-.225 1.157-.59 1.571-.194.226-4.265 4.766-4.587 5.124-.49.546-1.89 1.68-2.279 1.757-.436.114-1.046.022-1.615-.531-4.647-5.092-20.492-22.643-21.097-23.318-7.092-8.069-10.612-23.22-4.605-30.162 1.618-4.913 5.623-9.294 11.267-10.847 4.346-.109 8.439 1.628 11.542 4.872 3.51 3.697 5.28 8.855 4.883 14.13.068.402.174.749.598 1.022 1.407 1.369 2.818 2.745 4.231 4.129 2.628-8.42.809-17.782-4.67-24.065-3.824-4.44-8.96-6.892-14.436-6.909-5.475-.017-10.607 2.401-14.425 6.808-.343 1.461-.55 3.501-.774 6.003-.519 2.173-.929 4.55-1.225 7.052-.297 2.503-.48 5.13-.548 7.806-.025 3.204.495 6.308 1.575 9.173 1.304 3.114 3.097 6.007 5.33 8.544.572-1.905.135-4.021-1.129-5.429-.887-.988-2.066-1.517-3.312-1.481-1.246.036-2.404.637-3.25 1.703-1.739 2.322-1.641 5.6.169 7.719.092.103.558.622 5.021 5.595 1.525 1.726 2.986-.16 4.823-1.891.95 1.058 2.662 2.966 5.726 6.38" fill="#008080"/></g><g><path d="M14089.968 156.129c3.191 3.551 7.789 8.669 14.406 16.036.778.868-2.667-1.384-3.336-.638l-.541.523c-1.175 1.283-3.914 4.307-4.146 4.539-.547.582-1.11.694-1.491.681-.507-.013-.998-.256-1.384-.686l-21.505-23.956c-12.707-14.156-12.802-37.122-.285-51.278 6.1-6.795 14.206-10.556 22.826-10.59 8.62-.034 16.699 3.66 22.745 10.395 4.895 5.453 7.983 12.371 8.926 20.004.906 7.352-.325 15.009-3.48 21.553-.089-.046-.169-.076-.243-.146 1.201 1.337 2.402 2.674 3.606 4.014 8.437-16.524 5.93-37.353-6.217-50.885-7.172-7.988-16.692-12.417-26.815-12.48-10.124-.062-19.625 4.241-26.756 12.111-7.432 8.377-11.312 19.602-10.925 31.248 1.286 12.647 6.483 24.611 14.868 33.951 8.88 9.893 17.761 19.787 26.641 29.68 1.575-1.737 21.894-24.354 26.089-29.012.018-.002.035-.005.048-.008-1.086-1.203-19.211-21.391-19.207-21.38-.261-.285-.522-.569-.784-.853.004.01.008.021.011.032-.526-.578-1.052-1.155-1.579-1.733.002.012-7.562-8.403-9.245-10.268-1.849 2.626-1.683 6.495.472 8.907 7.154 7.995 14.305 15.99 21.454 23.985.383.458.59 1.05.581 1.674-.009.604-.229 1.192-.605 1.617-.198.229-4.431 4.949-4.762 5.317-.502.558-1.756 1.513-2.145 1.576-.431.093-1.042-.007-1.619-.583-4.82-5.3-21.285-23.56-21.89-24.235-7.151-8.143-10.029-23.035-3.752-30.232 1.987-4.767 6.152-8.769 11.719-10.044 4.502-.09 8.739 1.741 11.946 5.138 3.629 3.868 5.447 9.256 5.009 14.762.046.436.13.813.545 1.112 1.438 1.439 2.879 2.884 4.322 4.335 2.707-8.752.785-18.487-4.946-25.019-4.009-4.613-9.383-7.16-15.112-7.174-5.728-.014-11.099 2.505-15.103 7.092-.569 1.52-.984 3.551-1.368 5.988-.625 2.167-1.115 4.528-1.462 7.009-.347 2.482-.553 5.084-.611 7.734-.023 3.311.518 6.521 1.627 9.485 1.293 3.169 3.095 6.108 5.354 8.677.47-1.564.113-3.3-.922-4.452-.725-.808-1.688-1.237-2.704-1.199-1.017.037-1.958.541-2.641 1.43-1.416 1.92-1.32 4.629.185 6.389.094.105.499.556 4.19 4.669 1.278 1.446 2.508-.069 4.051-1.451.988 1.101 2.77 3.086 5.96 6.639" fill="#008080"/></g><g><path d="M14387.046 155.952c3.297 3.67 8.049 8.959 14.887 16.574.847.944-1.998-.586-2.689.185l-.551.549c-1.213 1.329-4.041 4.457-4.277 4.699-.563.605-1.142.724-1.533.713-.522-.01-1.027-.259-1.423-.699l-22.224-24.758c-13.112-14.606-13.189-38.317-.232-52.923 6.303-7.023 14.685-10.906 23.6-10.933 8.914-.028 17.273 3.8 23.533 10.774 5.071 5.648 8.276 12.813 9.266 20.719.952 7.615-.303 15.547-3.546 22.33-.074-.027-.138-.038-.196-.089 1.26 1.402 2.52 2.804 3.783 4.209 8.736-17.056 6.163-38.562-6.375-52.529-7.395-8.237-17.219-12.798-27.668-12.849-10.45-.051-20.259 4.407-27.622 12.548-7.606 8.555-11.623 20.003-11.308 31.944 1.047 12.755 6.135 24.805 14.518 34.143 9.176 10.222 18.352 20.445 27.528 30.667 1.626-1.797 22.623-25.173 26.957-29.988.017-.006.033-.011.045-.015-1.123-1.246-19.856-22.111-19.852-22.103-.27-.296-.541-.593-.813-.889.004.009.007.018.009.027-.544-.6-1.088-1.199-1.633-1.799.001.01-7.816-8.69-9.555-10.619-1.911 2.711-1.74 6.707.487 9.197 7.393 8.257 14.784 16.514 22.174 24.77.396.467.612 1.074.605 1.714-.008.618-.233 1.221-.619 1.657-.202.232-4.574 5.104-4.912 5.481-.511.569-1.64 1.37-2.031 1.421-.426.076-1.038-.032-1.621-.627-4.967-5.478-21.963-24.343-22.568-25.019-7.203-8.205-9.53-22.876-3.024-30.291 2.303-4.643 6.605-8.32 12.106-9.359 4.635-.072 8.996 1.838 12.291 5.365 3.731 4.015 5.59 9.598 5.117 15.304.027.465.092.868.499 1.188 1.464 1.498 2.931 3.002 4.4 4.51 2.774-9.036.765-19.088-5.181-25.832-4.167-4.762-9.745-7.39-15.69-7.401-5.944-.011-11.519 2.593-15.682 7.333-.763 1.571-1.356 3.595-1.875 5.976-.717 2.162-1.274 4.509-1.665 6.973-.391 2.463-.615 5.044-.665 7.673-.022 3.402.538 6.701 1.672 9.751 1.284 3.216 3.092 6.195 5.374 8.79.383-1.272.094-2.683-.745-3.618-.587-.654-1.366-.997-2.186-.958-.819.038-1.576.459-2.119 1.197-1.14 1.577-1.046 3.799.198 5.254.096.107.448.5 3.48 3.877 1.067 1.208 2.1.009 3.392-1.076 1.021 1.138 2.863 3.19 6.159 6.862" fill="#008080"/></g><g><path d="M14684.112 155.801c3.388 3.771 8.271 9.207 15.298 17.032.906 1.011-1.427.096-2.137.888l-.56.572c-1.244 1.369-4.147 4.585-4.388 4.837-.577.624-1.17.748-1.569.74-.535-.009-1.051-.262-1.456-.712l-22.838-25.442c-13.457-14.99-13.519-39.337-.187-54.328 6.478-7.217 15.094-11.203 24.26-11.225 9.167-.022 17.764 3.92 24.208 11.097 5.22 5.816 8.525 13.192 9.555 21.33.992 7.84-.284 16.007-3.602 22.993-.061-.011-.112-.005-.156-.041 1.311 1.459 2.621 2.917 3.933 4.377 8.993-17.51 6.363-39.595-6.508-53.933-7.587-8.45-17.669-13.124-28.398-13.165-10.728-.041-20.799 4.55-28.359 12.923-7.757 8.705-11.89 20.344-11.636 32.537.842 12.848 5.838 24.971 14.219 34.307l28.284 31.509c1.67-1.848 23.246-25.872 27.699-30.822.016-.007.032-.014.043-.021-1.155-1.282-20.406-22.725-20.403-22.718-.279-.307-.558-.613-.837-.92.002.007.005.014.007.021l-1.68-1.854c.001.008-8.032-8.934-9.82-10.919-1.963 2.784-1.787 6.888.501 9.444 7.597 8.481 15.193 16.961 22.788 25.441.408.476.63 1.095.625 1.748-.007.631-.236 1.247-.63 1.69-.206.235-4.695 5.238-5.04 5.622-.519.578-1.542 1.248-1.933 1.289-.423.061-1.036-.054-1.624-.665-5.093-5.629-22.541-25.012-23.146-25.687-7.247-8.26-9.105-22.741-2.402-30.343 2.571-4.536 6.99-7.937 12.436-8.772 4.749-.059 9.214 1.919 12.584 5.558 3.819 4.139 5.712 9.89 5.209 15.765.011.49.061.915.461 1.253 1.487 1.55 2.976 3.103 4.466 4.661 2.832-9.278.749-19.602-5.382-26.528-4.301-4.889-10.053-7.585-16.183-7.594-6.128-.009-11.877 2.669-16.176 7.54-.928 1.614-1.673 3.631-2.308 5.965-.794 2.158-1.41 4.493-1.838 6.941-.428 2.449-.668 5.01-.71 7.621-.022 3.48.554 6.856 1.709 9.979 1.275 3.256 3.09 6.268 5.392 8.887.309-1.023.077-2.157-.594-2.906-.469-.522-1.091-.793-1.743-.753-.652.04-1.251.39-1.675.999-.904 1.284-.812 3.091.209 4.284.098.109.405.452 2.874 3.202.888 1.003 1.751.076 2.829-.756 1.05 1.17 2.942 3.278 6.329 7.052" fill="#008080"/></g><g><path d="M14981.169 155.672c3.465 3.858 8.459 9.419 15.647 17.424.956 1.066-.94.676-1.667 1.486l-.567.591c-1.271 1.402-4.239 4.694-4.484 4.953-.588.641-1.192.77-1.599.763-.545-.007-1.072-.263-1.484-.722l-23.361-26.024c-13.75-15.318-13.8-40.206-.148-55.524 6.626-7.382 15.442-11.457 24.823-11.475 9.381-.017 18.182 4.023 24.78 11.373 5.349 5.958 8.739 13.514 9.803 21.85 1.025 8.031-.269 16.398-3.649 23.558-.051.002-.091.023-.123 0 1.353 1.506 2.707 3.012 4.061 4.52 9.211-17.898 6.533-40.475-6.622-55.129-7.749-8.632-18.053-13.401-29.018-13.434-10.966-.033-21.26 4.671-28.988 13.242-7.885 8.834-12.117 20.635-11.915 33.042.668 12.927 5.584 25.112 13.965 34.447 9.643 10.742 19.285 21.484 28.928 32.226 1.707-1.892 23.776-26.467 28.33-31.531.016-.009.031-.018.042-.026-1.183-1.314-20.875-23.249-20.873-23.244l-.858-.945c.002.005.004.011.006.016-.573-.634-1.146-1.268-1.72-1.902.001.006-8.216-9.142-10.045-11.174-2.009 2.846-1.829 7.042.512 9.655 7.771 8.671 15.541 17.341 23.31 26.012.419.482.647 1.112.643 1.777-.006.642-.238 1.268-.64 1.718-.208.237-4.798 5.352-5.148 5.742-.526.585-1.459 1.143-1.85 1.176-.42.049-1.034-.072-1.626-.697-5.201-5.758-23.034-25.581-23.638-26.256-7.285-8.306-8.743-22.626-1.873-30.386 2.8-4.447 7.318-7.611 12.717-8.274 4.845-.047 9.4 1.989 12.834 5.723 3.894 4.246 5.816 10.139 5.288 16.158-.003.511.033.955.427 1.309 1.507 1.593 3.014 3.189 4.523 4.789 2.881-9.485.734-20.04-5.553-27.12-4.416-4.997-10.316-7.752-16.603-7.759-6.285-.007-12.183 2.733-16.597 7.716-1.069 1.651-1.943 3.662-2.677 5.956-.86 2.153-1.526 4.478-1.985 6.914-.46 2.435-.714 4.981-.749 7.577-.021 3.545.569 6.988 1.741 10.172 1.269 3.291 3.089 6.331 5.407 8.97.246-.812.064-1.71-.466-2.3-.368-.41-.856-.619-1.365-.578-.51.041-.974.331-1.296.829-.703 1.035-.613 2.489.219 3.459.099.11.368.411 2.357 2.627.734.83 1.455.132 2.35-.483 1.073 1.196 3.009 3.353 6.474 7.213" fill="#008080"/></g><g><path d="M15278.217 155.562c3.531 3.932 8.619 9.599 15.943 17.756.999 1.113-.528 1.168-1.268 1.994l-.574.607c-1.293 1.43-4.316 4.786-4.564 5.052-.598.654-1.212.788-1.625.782-.554-.005-1.089-.265-1.507-.731l-23.805-26.518c-13.999-15.595-14.038-40.942-.115-56.537 6.751-7.522 15.737-11.672 25.299-11.686 9.563-.014 18.536 4.109 25.267 11.607 5.457 6.078 8.919 13.785 10.012 22.29 1.054 8.193-.255 16.73-3.69 24.037-.041.013-.071.046-.093.035 1.389 1.546 2.779 3.092 4.169 4.64 9.396-18.226 6.677-41.221-6.718-56.142-7.888-8.786-18.379-13.637-29.545-13.662-11.167-.026-21.651 4.774-29.521 13.512-7.993 8.943-12.309 20.882-12.152 33.471.521 12.993 5.371 25.232 13.75 34.565 9.825 10.945 19.65 21.89 29.474 32.834 1.739-1.929 24.226-26.971 28.865-32.133.016-.01.03-.02.041-.03-1.206-1.34-21.273-23.693-21.271-23.689-.292-.322-.584-.645-.876-.967.002.004.003.008.005.013-.584-.648-1.168-1.295-1.753-1.943.001.005-8.372-9.318-10.236-11.391-2.047 2.899-1.864 7.173.521 9.834 7.919 8.832 15.837 17.664 23.754 26.496.427.489.66 1.127.657 1.801-.005.652-.24 1.287-.648 1.743-.21.238-4.886 5.448-5.241 5.843-.531.592-1.387 1.056-1.779 1.081-.418.038-1.032-.087-1.627-.724-5.292-5.867-23.452-26.064-24.057-26.739-7.316-8.345-8.435-22.528-1.423-30.423 2.994-4.37 7.596-7.335 12.955-7.851 4.927-.037 9.558 2.048 13.046 5.863 3.957 4.336 5.905 10.35 5.354 16.491-.014.529.011.988.4 1.356 1.523 1.63 3.046 3.262 4.57 4.897 2.924-9.66.722-20.411-5.697-27.622-4.514-5.088-10.54-7.892-16.959-7.898-6.418-.005-12.442 2.788-16.954 7.865-1.188 1.682-2.172 3.689-2.99 5.948-.916 2.15-1.624 4.467-2.11 6.891-.486 2.425-.752 4.958-.782 7.54-.02 3.601.581 7.099 1.769 10.336 1.262 3.32 3.087 6.385 5.419 9.04.192-.632.052-1.33-.356-1.785-.284-.316-.658-.472-1.046-.43-.389.041-.739.28-.975.685-.533.824-.444 1.977.227 2.76.1.111.337.375 1.919 2.138.605.683 1.203.18 1.944-.251 1.094 1.219 3.067 3.417 6.597 7.349" fill="#008080"/></g><g><path d="M15575.257 155.47c3.586 3.994 8.754 9.75 16.193 18.035 1.034 1.153-.181 1.582-.933 2.421l-.579.62c-1.312 1.454-4.381 4.865-4.632 5.136-.605.666-1.229.803-1.647.799-.561-.004-1.103-.267-1.527-.739l-24.177-26.933c-14.21-15.829-14.239-41.563-.088-57.392 6.857-7.639 15.985-11.852 25.701-11.863 9.715-.01 18.834 4.182 25.675 11.803 5.548 6.18 9.071 14.016 10.189 22.661 1.077 8.33-.244 17.01-3.724 24.441-.034.022-.055.066-.069.064 1.42 1.58 2.84 3.16 4.261 4.742 9.551-18.502 6.798-41.848-6.8-56.996-8.004-8.915-18.653-13.834-29.988-13.853-11.336-.02-21.979 4.861-29.97 13.739-8.083 9.035-12.47 21.09-12.351 33.832.397 13.049 5.19 25.332 13.569 34.665 9.978 11.115 19.956 22.23 29.934 33.346 1.765-1.96 24.603-27.396 29.315-32.64.015-.012.029-.023.04-.034-1.225-1.361-21.607-24.066-21.606-24.063-.297-.328-.594-.657-.891-.986.001.003.003.007.004.01-.594-.659-1.187-1.318-1.781-1.977.001.004-8.504-9.467-10.397-11.573-2.079 2.943-1.893 7.283.529 9.985 8.043 8.968 16.085 17.935 24.127 26.903.434.494.672 1.14.669 1.822-.004.659-.241 1.301-.654 1.763-.213.24-4.96 5.529-5.319 5.928-.536.598-1.328.982-1.72 1.001-.415.029-1.03-.1-1.629-.747-5.368-5.959-23.803-26.471-24.407-27.146-7.343-8.377-8.177-22.446-1.046-30.454 3.157-4.305 7.83-7.101 13.155-7.495 4.997-.027 9.692 2.099 13.226 5.981 4.009 4.412 5.978 10.528 5.41 16.772-.025.544-.009 1.016.376 1.395 1.536 1.661 3.073 3.324 4.61 4.989 2.959-9.807.712-20.723-5.819-28.045-4.596-5.165-10.727-8.011-17.259-8.015-6.53-.004-12.66 2.833-17.255 7.99-1.288 1.709-2.364 3.711-3.252 5.942-.963 2.147-1.706 4.457-2.215 6.872-.509 2.415-.784 4.936-.81 7.508-.02 3.649.591 7.193 1.792 10.474 1.257 3.344 3.086 6.43 5.43 9.099.147-.481.042-1.01-.265-1.353-.212-.235-.491-.347-.777-.305-.286.042-.541.238-.704.565-.39.646-.303 1.547.233 2.17.101.113.311.346 1.551 1.728.496.559.992.221 1.602-.056 1.111 1.238 3.115 3.47 6.7 7.464" fill="#008080"/></g><g><path d="M15872.291 155.394c3.632 4.045 8.866 9.875 16.4 18.267 1.065 1.186.109 1.927-.653 2.777l-.583.632c-1.328 1.473-4.436 4.929-4.688 5.205-.613.675-1.243.815-1.666.812-.567-.003-1.115-.268-1.544-.745l-24.488-27.279c-14.384-16.024-14.406-42.08-.065-58.103 6.946-7.738 16.192-12.004 26.035-12.011 9.843-.008 19.083 4.242 26.017 11.966 5.624 6.264 9.198 14.207 10.336 22.971 1.097 8.444-.235 17.242-3.753 24.776-.027.03-.042.082-.049.089 1.446 1.608 2.891 3.217 4.337 4.826 9.682-18.732 6.899-42.371-6.868-57.706-8.1-9.023-18.88-13.999-30.356-14.014-11.477-.014-22.254 4.933-30.344 13.929-8.159 9.112-12.605 21.263-12.517 34.132.294 13.097 5.04 25.417 13.417 34.748 10.106 11.258 20.212 22.515 30.318 33.773 1.787-1.986 24.919-27.75 29.69-33.062.015-.012.029-.025.039-.037-1.241-1.38-21.886-24.377-21.885-24.375-.301-.334-.602-.667-.903-1.001.001.002.002.004.003.007-.602-.669-1.203-1.337-1.805-2.005.001.003-8.613-9.591-10.531-11.725-2.106 2.979-1.917 7.375.536 10.11 8.146 9.081 16.292 18.162 24.438 27.242.44.498.681 1.151.679 1.839-.003.666-.243 1.315-.66 1.78-.214.242-5.021 5.597-5.383 6-.54.602-1.278.92-1.67.934-.414.022-1.029-.111-1.631-.766-5.432-6.036-24.096-26.809-24.7-27.484-7.365-8.405-7.962-22.378-.731-30.48 3.293-4.251 8.025-6.908 13.322-7.199 5.054-.02 9.803 2.14 13.375 6.079 4.053 4.475 6.04 10.676 5.456 17.006-.032.556-.025 1.04.357 1.428 1.547 1.687 3.095 3.375 4.644 5.064 2.988-9.929.703-20.983-5.922-28.396-4.663-5.229-10.883-8.11-17.508-8.113-6.623-.003-12.842 2.871-17.505 8.094-1.372 1.731-2.525 3.731-3.472 5.937-1.002 2.145-1.775 4.448-2.302 6.856-.528 2.408-.811 4.92-.834 7.481-.018 3.689.6 7.272 1.812 10.59 1.253 3.365 3.085 6.467 5.439 9.148.109-.355.034-.744-.189-.992-.152-.169-.351-.244-.552-.201-.202.043-.377.203-.48.464-.27.497-.183 1.188.24 1.679.101.114.289.322 1.244 1.386.404.456.815.255 1.317.106 1.125 1.254 3.154 3.515 6.786 7.561" fill="#008080"/></g><g><path d="M16169.319 155.331c3.669 4.087 8.958 9.978 16.571 18.457 1.088 1.214.346 2.212-.424 3.07l-.587.641c-1.341 1.49-4.48 4.982-4.735 5.262-.618.684-1.254.826-1.68.824-.572-.003-1.125-.269-1.557-.75l-24.744-27.564c-14.527-16.183-14.543-42.503-.046-58.687 7.018-7.818 16.362-12.127 26.31-12.133 9.947-.005 19.286 4.293 26.297 12.102 5.685 6.333 9.301 14.364 10.456 23.224 1.113 8.537-.227 17.433-3.776 25.052-.022.037-.031.096-.032.109 1.466 1.631 2.932 3.263 4.399 4.896 9.788-18.922 6.982-42.801-6.923-58.291-8.18-9.111-19.068-14.134-30.66-14.144-11.593-.01-22.478 4.992-30.651 14.084-8.222 9.175-12.716 21.405-12.653 34.379.209 13.135 4.917 25.486 13.293 34.816 10.211 11.375 20.421 22.749 30.632 34.123 1.805-2.007 25.178-28.04 29.999-33.409.014-.013.028-.026.037-.039-1.254-1.395-22.114-24.632-22.113-24.631-.305-.338-.609-.676-.914-1.014.001.002.002.003.002.005-.607-.676-1.215-1.352-1.823-2.028 0 .002-8.704-9.692-10.642-11.85-2.127 3.01-1.937 7.45.542 10.213 8.231 9.174 16.462 18.348 24.693 27.521.445.502.689 1.159.688 1.854-.003.67-.244 1.325-.665 1.793-.215.243-5.072 5.653-5.436 6.059-.544.605-1.238.868-1.63.879-.413.015-1.028-.12-1.631-.783-5.485-6.098-24.337-27.086-24.941-27.761-7.384-8.427-7.785-22.322-.473-30.501 3.405-4.208 8.186-6.749 13.46-6.956 5.101-.014 9.893 2.174 13.496 6.159 4.09 4.528 6.092 10.798 5.495 17.198-.039.567-.038 1.06.341 1.456 1.557 1.708 3.114 3.417 4.671 5.126 3.012-10.03.697-21.196-6.005-28.685-4.719-5.282-11.011-8.191-17.713-8.194-6.7-.002-12.991 2.903-17.71 8.181-1.441 1.749-2.657 3.745-3.652 5.932-1.035 2.143-1.832 4.442-2.375 6.843-.543 2.401-.833 4.905-.852 7.46-.019 3.72.607 7.336 1.827 10.684 1.25 3.381 3.084 6.498 5.446 9.188.078-.251.027-.525-.126-.696-.103-.114-.236-.159-.368-.115-.132.043-.241.173-.294.381-.173.376-.087.894.244 1.276.102.114.271.302.992 1.105.329.371.67.282 1.083.239 1.137 1.267 3.187 3.552 6.857 7.64" fill="#008080"/></g><g><path d="M16466.341 155.28c3.7 4.122 9.032 10.062 16.708 18.611 1.109 1.236.537 2.44-.239 3.305l-.59.649c-1.351 1.503-4.516 5.025-4.772 5.307-.623.69-1.263.834-1.692.833-.577-.002-1.134-.27-1.569-.754l-24.948-27.793c-14.643-16.311-14.654-42.844-.032-59.156 7.077-7.883 16.499-12.227 26.531-12.231 10.032-.003 19.451 4.333 26.522 12.21 5.736 6.389 9.385 14.49 10.554 23.428 1.126 8.613-.221 17.587-3.796 25.274-.017.042-.022.107-.018.125 1.483 1.65 2.966 3.301 4.449 4.952 9.874-19.074 7.049-43.146-6.968-58.76-8.243-9.182-19.218-14.243-30.903-14.25-11.686-.007-22.659 5.04-30.898 14.21-8.272 9.225-12.804 21.519-12.762 34.577.14 13.166 4.817 25.541 13.193 34.871 10.295 11.468 20.59 22.937 30.885 34.405 1.82-2.025 25.386-28.275 30.246-33.688.015-.014.028-.027.037-.041-1.265-1.407-22.298-24.838-22.298-24.837-.307-.342-.614-.683-.922-1.024l.002.002-1.839-2.046c0 .001-8.776-9.774-10.73-11.95-2.145 3.034-1.953 7.511.546 10.296 8.3 9.248 16.599 18.497 24.898 27.745.449.504.696 1.166.695 1.864-.002.676-.245 1.334-.668 1.805-.217.244-5.113 5.698-5.479 6.106-.547.609-1.205.828-1.597.835-.412.01-1.027-.128-1.633-.795-5.526-6.149-24.53-27.311-25.134-27.986-7.398-8.445-7.643-22.276-.265-30.518 3.496-4.171 8.315-6.62 13.571-6.759 5.138-.01 9.966 2.201 13.594 6.224 4.119 4.569 6.132 10.895 5.526 17.352-.045.575-.049 1.075.328 1.477 1.564 1.725 3.128 3.451 4.693 5.177 3.031-10.111.691-21.369-6.072-28.918-4.764-5.324-11.115-8.256-17.878-8.258-6.762-.001-13.111 2.928-17.876 8.249-1.496 1.764-2.762 3.758-3.796 5.929-1.061 2.142-1.877 4.436-2.433 6.833-.556 2.396-.851 4.894-.868 7.442-.018 3.746.613 7.388 1.84 10.76 1.247 3.395 3.084 6.523 5.452 9.221.054-.168.022-.35-.075-.458-.063-.071-.145-.091-.22-.047-.076.043-.132.15-.146.315-.094.278-.008.657.248.952.103.115.256.286.789.879.269.303.554.304.895.346 1.146 1.278 3.214 3.581 6.914 7.703" fill="#008080"/></g><g><path d="M16763.358 155.241c3.724 4.148 9.091 10.126 16.815 18.731 1.124 1.253.686 2.617-.094 3.487l-.593.655c-1.359 1.513-4.544 5.058-4.801 5.343-.626.695-1.27.841-1.702.84-.579-.001-1.139-.27-1.577-.757l-25.108-27.971c-14.733-16.412-14.74-43.11-.02-59.522 7.122-7.934 16.606-12.305 26.703-12.307 10.098-.003 19.579 4.363 26.698 12.294 5.775 6.432 9.45 14.588 10.629 23.587 1.136 8.671-.216 17.707-3.81 25.447-.015.046-.015.115-.008.137 1.496 1.665 2.992 3.33 4.488 4.996 9.941-19.192 7.101-43.415-7.002-59.126-8.294-9.238-19.336-14.328-31.094-14.332-11.758-.004-22.8 5.077-31.09 14.307-8.311 9.264-12.874 21.608-12.848 34.732.087 13.19 4.74 25.584 13.115 34.914 10.361 11.541 20.722 23.082 31.082 34.624 1.832-2.038 25.549-28.457 30.44-33.905.014-.014.028-.028.037-.043-1.274-1.416-22.442-24.998-22.442-24.997-.309-.344-.619-.688-.928-1.032 0 0 .001 0 .001.001l-1.851-2.061s-8.832-9.838-10.799-12.028c-2.159 3.053-1.966 7.557.549 10.36 8.353 9.307 16.706 18.613 25.058 27.92.452.506.701 1.171.701 1.873-.002.679-.246 1.34-.672 1.814-.217.244-5.144 5.732-5.512 6.142-.549.611-1.179.796-1.572.8-.41.007-1.026-.133-1.633-.805-5.559-6.188-24.681-27.484-25.285-28.159-7.409-8.459-7.531-22.241-.102-30.531 3.565-4.145 8.415-6.521 13.656-6.607 5.168-.006 10.024 2.223 13.671 6.274 4.142 4.602 6.164 10.971 5.55 17.473-.049.581-.057 1.087.318 1.494 1.57 1.738 3.14 3.477 4.71 5.216 3.047-10.175.687-21.503-6.124-29.099-4.799-5.357-11.195-8.308-18.006-8.309-6.811-.001-13.205 2.948-18.005 8.303-1.539 1.775-2.845 3.768-3.91 5.927-1.08 2.14-1.912 4.431-2.478 6.824-.565 2.392-.864 4.885-.879 7.428-.018 3.767.617 7.428 1.85 10.82 1.245 3.405 3.083 6.542 5.456 9.246.035-.104.018-.213-.036-.272-.032-.037-.072-.038-.104.006s-.048.132-.03.264c-.033.201.052.472.251.699.103.115.245.273.631.703.222.249.462.321.748.429 1.154 1.286 3.235 3.604 6.958 7.753" fill="#008080"/></g><g><path d="M17060.371 155.211c3.742 4.168 9.133 10.175 16.895 18.82 1.135 1.266.796 2.749.012 3.624l-.594.659c-1.366 1.521-4.565 5.083-4.823 5.37-.629.699-1.276.845-1.709.845-.582-.001-1.144-.271-1.583-.759l-25.228-28.104c-14.799-16.486-14.803-43.308-.01-59.794 7.155-7.972 16.684-12.363 26.831-12.364 10.146-.001 19.673 4.387 26.828 12.357 5.804 6.465 9.498 14.661 10.685 23.705 1.144 8.715-.213 17.796-3.821 25.575-.012.05-.01.122 0 .147 1.506 1.676 3.011 3.352 4.518 5.028 9.99-19.28 7.139-43.615-7.029-59.397-8.331-9.28-19.423-14.391-31.235-14.394-11.812-.002-22.905 5.105-31.233 14.38-8.34 9.294-12.926 21.674-12.911 34.847.047 13.208 4.682 25.616 13.057 34.945 10.41 11.596 20.819 23.192 31.229 34.788 1.839-2.048 25.668-28.592 30.583-34.067.014-.014.027-.029.036-.043-1.279-1.424-22.548-25.118-22.548-25.118l-.933-1.038c0 .001 0 .001.001.001-.62-.691-1.24-1.382-1.86-2.072 0 0-8.875-9.885-10.851-12.086-2.169 3.067-1.975 7.592.552 10.408 8.393 9.35 16.785 18.7 25.177 28.05.454.508.705 1.175.704 1.88-.001.681-.246 1.345-.673 1.82-.218.244-5.168 5.758-5.537 6.169-.55.613-1.16.772-1.553.775-.41.003-1.026-.137-1.633-.812-5.584-6.218-24.793-27.614-25.397-28.289-7.418-8.47-7.45-22.215.017-30.541 3.618-4.124 8.491-6.447 13.72-6.494 5.191-.003 10.066 2.239 13.729 6.312 4.159 4.626 6.187 11.028 5.567 17.562-.052.586-.063 1.096.31 1.507 1.575 1.748 3.149 3.496 4.724 5.245 3.058-10.222.683-21.602-6.163-29.234-4.826-5.381-11.255-8.345-18.102-8.346-6.846 0-13.274 2.962-18.101 8.343-1.571 1.783-2.906 3.775-3.993 5.924-1.096 2.14-1.939 4.429-2.511 6.818-.573 2.39-.875 4.879-.889 7.419-.017 3.782.621 7.458 1.857 10.863 1.244 3.413 3.083 6.557 5.46 9.265.02-.055.015-.11-.006-.134-.01-.011-.02.002-.019.046 0 .044.016.119.056.225.013.144.098.335.253.512.104.115.237.263.514.572.187.21.395.334.639.491 1.159 1.292 3.25 3.621 6.991 7.789" fill="#008080"/></g><g><path d="M17357.38 155.191c3.753 4.182 9.163 10.208 16.949 18.881 1.143 1.274.872 2.839.085 3.717l-.595.662c-1.37 1.526-4.579 5.1-4.838 5.388-.63.701-1.279.848-1.713.848-.584 0-1.148-.27-1.588-.76l-25.309-28.195c-14.845-16.537-14.847-43.443-.004-59.98 7.178-7.997 16.738-12.402 26.918-12.402 10.18-.001 19.739 4.403 26.917 12.399 5.824 6.487 9.532 14.712 10.724 23.786 1.149 8.745-.21 17.857-3.828 25.664-.011.051-.007.125.005.153 1.512 1.683 3.025 3.366 4.537 5.05 10.025-19.34 7.166-43.752-7.046-59.584-8.356-9.307-19.483-14.434-31.332-14.435-11.849-.001-22.976 5.124-31.33 14.429-8.36 9.314-12.961 21.72-12.955 34.926.02 13.22 4.643 25.638 13.018 34.967l31.329 34.899c1.845-2.055 25.751-28.684 30.681-34.177.014-.015.027-.029.036-.044-1.284-1.429-22.621-25.199-22.621-25.199-.312-.347-.625-.695-.937-1.042h.001c-.622-.694-1.244-1.387-1.866-2.08 0 0-8.903-9.917-10.885-12.126-2.177 3.077-1.982 7.617.553 10.441 8.42 9.38 16.839 18.759 25.258 28.139.456.509.708 1.178.707 1.884-.001.683-.246 1.349-.674 1.825-.219.245-5.184 5.776-5.555 6.188-.551.614-1.146.756-1.539.757-.41.002-1.026-.14-1.634-.817-5.6-6.238-24.87-27.703-25.474-28.378-7.423-8.476-7.393-22.196.1-30.547 3.653-4.11 8.542-6.396 13.764-6.416 5.206-.002 10.095 2.249 13.768 6.337 4.17 4.642 6.203 11.067 5.579 17.623-.054.59-.068 1.103.305 1.516 1.578 1.755 3.155 3.51 4.732 5.265 3.066-10.254.681-21.67-6.189-29.326-4.844-5.398-11.296-8.371-18.168-8.372-6.87 0-13.321 2.973-18.166 8.371-1.593 1.788-2.948 3.779-4.05 5.922-1.106 2.139-1.957 4.427-2.535 6.814-.577 2.388-.881 4.874-.894 7.412-.018 3.792.623 7.478 1.862 10.894 1.242 3.418 3.083 6.566 5.462 9.277.01-.022.013-.041.014-.04.006.007.017.03.039.074.023.044.059.109.116.198.044.106.128.242.254.384.104.115.231.257.434.482.163.183.349.343.564.534 1.163 1.296 3.261 3.633 7.014 7.814" fill="#008080"/></g><g><path d="M17654.385 155.18c3.76 4.189 9.18 10.226 16.98 18.915 1.148 1.28.916 2.892.128 3.771l-.596.664c-1.372 1.529-4.587 5.11-4.846 5.398-.632.703-1.282.851-1.716.851-.585 0-1.15-.271-1.591-.762l-25.356-28.246c-14.871-16.567-14.871-43.521-.001-60.088 7.192-8.012 16.77-12.425 26.969-12.425 10.199 0 19.776 4.412 26.969 12.424 5.835 6.5 9.55 14.741 10.745 23.833 1.153 8.762-.208 17.892-3.832 25.714-.009.053-.005.128.008.157 1.516 1.688 3.033 3.375 4.549 5.063 10.044-19.375 7.181-43.831-7.057-59.691-8.37-9.323-19.516-14.459-31.387-14.459-11.87 0-23.017 5.135-31.387 14.458-8.371 9.325-12.981 21.745-12.979 34.97.005 13.228 4.62 25.651 12.995 34.98 10.462 11.655 20.924 23.309 31.386 34.964 1.849-2.059 25.799-28.738 30.738-34.241.014-.015.027-.03.036-.045-1.286-1.431-22.663-25.246-22.663-25.246l-.939-1.044c.001 0 .001 0 .001-.001-.623-.694-1.246-1.389-1.87-2.083 0 0-8.919-9.936-10.905-12.149-2.181 3.082-1.986 7.631.555 10.46 8.435 9.396 16.87 18.793 25.305 28.189.456.51.708 1.18.708 1.888-.001.683-.247 1.35-.676 1.827-.219.245-5.193 5.785-5.564 6.198-.551.615-1.139.747-1.532.748-.409 0-1.025-.142-1.634-.821-5.61-6.249-24.914-27.753-25.518-28.428-7.427-8.481-7.36-22.186.148-30.552 3.673-4.101 8.571-6.366 13.789-6.371 5.214-.001 10.112 2.256 13.79 6.352 4.177 4.652 6.213 11.089 5.586 17.659-.055.591-.07 1.106.302 1.52 1.58 1.759 3.159 3.518 4.738 5.276 3.069-10.272.679-21.709-6.205-29.379-4.854-5.407-11.32-8.386-18.205-8.386-6.885 0-13.349 2.978-18.204 8.386-1.606 1.792-2.973 3.783-4.084 5.922-1.112 2.139-1.967 4.425-2.547 6.812-.58 2.386-.886 4.871-.898 7.407-.018 3.799.624 7.491 1.865 10.911 1.242 3.422 3.083 6.572 5.464 9.285.004-.003.011 0 .024.015.015.016.038.045.074.089.035.044.084.104.149.183.062.084.147.188.256.31.103.115.227.253.387.431.15.167.322.348.522.558 1.164 1.298 3.266 3.64 7.026 7.829" fill="#008080"/></g><g><path d="M17951.387 155.176c3.762 4.192 9.185 10.232 16.99 18.927 1.149 1.281.93 2.908.141 3.788l-.596.664c-1.373 1.53-4.59 5.113-4.849 5.402-.632.703-1.282.851-1.717.851-.585 0-1.15-.271-1.591-.762l-25.371-28.263c-14.88-16.576-14.88-43.546 0-60.122 7.196-8.017 16.78-12.432 26.985-12.432 10.205 0 19.788 4.415 26.985 12.432 5.839 6.504 9.557 14.75 10.753 23.848 1.153 8.767-.208 17.903-3.834 25.73-.009.053-.004.129.009.158 1.518 1.689 3.035 3.378 4.553 5.067 10.05-19.386 7.186-43.856-7.06-59.725-8.375-9.329-19.528-14.467-31.405-14.467-11.877 0-23.031 5.138-31.405 14.467-8.375 9.329-12.988 21.754-12.988 34.985 0 13.23 4.613 25.655 12.988 34.984 10.468 11.661 20.937 23.323 31.405 34.984 1.85-2.06 25.814-28.755 30.756-34.261.014-.015.027-.03.036-.045-1.287-1.432-22.677-25.261-22.677-25.261-.313-.348-.626-.697-.939-1.045l.001-.001c-.624-.695-1.247-1.39-1.871-2.085 0 0-8.925-9.942-10.912-12.156-2.182 3.084-1.987 7.635.555 10.466l25.32 28.206c.457.51.709 1.18.709 1.888-.001.684-.247 1.351-.676 1.828-.219.245-5.196 5.789-5.567 6.202-.552.615-1.137.744-1.53.744-.409 0-1.025-.142-1.634-.821-5.613-6.253-24.928-27.77-25.532-28.445-7.428-8.482-7.35-22.183.163-30.553 3.68-4.099 8.58-6.357 13.797-6.357 5.217 0 10.117 2.258 13.797 6.357 4.179 4.655 6.216 11.096 5.589 17.67-.056.592-.071 1.107.301 1.522 1.58 1.76 3.159 3.52 4.739 5.28 3.071-10.278.679-21.722-6.21-29.396-4.857-5.411-11.327-8.391-18.217-8.391-6.889 0-13.358 2.98-18.216 8.391-1.61 1.793-2.981 3.784-4.094 5.922-1.114 2.138-1.971 4.425-2.552 6.81-.581 2.386-.887 4.871-.899 7.407-.017 3.8.624 7.494 1.866 10.916 1.241 3.423 3.083 6.574 5.464 9.288.002.003.011.012.029.032.017.02.044.05.084.094.039.044.092.102.16.179.068.076.152.17.256.285.103.115.226.252.372.415.145.162.314.349.508.566 1.166 1.299 3.268 3.642 7.031 7.833" fill="#008080"/></g></svg>